G04*
G04 #@! TF.GenerationSoftware,Altium Limited,Altium Designer,24.10.1 (45)*
G04*
G04 Layer_Color=65535*
%FSLAX44Y44*%
%MOMM*%
G71*
G04*
G04 #@! TF.SameCoordinates,A4BD9A84-A7EC-4617-AE02-E11DBA2AA322*
G04*
G04*
G04 #@! TF.FilePolarity,Positive*
G04*
G01*
G75*
%ADD10C,0.1524*%
%ADD11C,0.4000*%
%ADD12C,0.2000*%
%ADD13C,0.1000*%
%ADD14C,0.1500*%
%ADD15C,0.2500*%
%ADD16C,0.5080*%
%ADD17C,0.1270*%
%ADD18C,0.2540*%
%ADD19C,0.0762*%
%ADD20R,1.5870X0.5080*%
%ADD21R,0.5080X1.5870*%
D10*
X1469898Y855980D02*
G03*
X1469898Y855980I-1270J0D01*
G01*
X623316Y1083780D02*
G03*
X623316Y1083780I-176276J0D01*
G01*
X1347216D02*
G03*
X1347216Y1083780I-176276J0D01*
G01*
X988447Y1082303D02*
G03*
X988447Y1082303I-176276J0D01*
G01*
X1463675Y880517D02*
Y887324D01*
X1447165Y900430D02*
X1463675D01*
X1447165Y890042D02*
Y900430D01*
Y867410D02*
X1463675D01*
X1447165D02*
Y877799D01*
X264300Y442214D02*
X619900D01*
X264300Y383794D02*
Y442214D01*
Y383794D02*
X619900D01*
Y442214D01*
X447040Y893534D02*
Y906234D01*
X440690Y899884D02*
X453390D01*
X1409827Y662432D02*
X1429893D01*
X1409827Y693928D02*
X1429893D01*
X1670718Y757653D02*
X1721463D01*
X1670718Y816073D02*
X1721463D01*
X905510Y477520D02*
Y571500D01*
X1167130D01*
Y477520D02*
Y571500D01*
X905510Y477520D02*
X1167130D01*
X760349Y293370D02*
X844931D01*
X760349D02*
Y448310D01*
X844931D01*
Y293370D02*
Y448310D01*
X1215009Y288290D02*
X1299591D01*
X1215009D02*
Y443230D01*
X1299591D01*
Y288290D02*
Y443230D01*
X992300Y378968D02*
X1055800D01*
Y261112D02*
Y378968D01*
X992300Y261112D02*
X1055800D01*
X992300D02*
Y378968D01*
X1164590Y899884D02*
X1177290D01*
X1170940Y893534D02*
Y906234D01*
X805821Y898407D02*
X818521D01*
X812171Y892057D02*
Y904757D01*
D11*
X1965470Y1192823D02*
G03*
X1965470Y1192823I-2000J0D01*
G01*
D12*
X2152580Y1023620D02*
G03*
X2152580Y1023620I-1000J0D01*
G01*
X295011Y370503D02*
G03*
X295011Y370503I-1000J0D01*
G01*
X2152580Y607060D02*
G03*
X2152580Y607060I-1000J0D01*
G01*
Y1236980D02*
G03*
X2152580Y1236980I-1000J0D01*
G01*
X1847041Y779050D02*
Y804112D01*
X1824541Y779050D02*
Y804112D01*
X1923241Y779412D02*
Y804474D01*
X1900741Y779412D02*
Y804474D01*
X1897841Y779412D02*
Y804474D01*
X1875341Y779412D02*
Y804474D01*
X1872440Y779050D02*
Y804112D01*
X1849940Y779050D02*
Y804112D01*
X1821640Y779412D02*
Y804474D01*
X1799140Y779412D02*
Y804474D01*
X1796870Y779949D02*
Y805011D01*
X1774370Y779949D02*
Y805011D01*
X2010680Y793350D02*
X2012680D01*
X2010680Y806850D02*
X2012680D01*
X2010590Y821290D02*
X2012590D01*
X2010590Y834790D02*
X2012590D01*
X2010590Y849230D02*
X2012590D01*
X2010590Y862730D02*
X2012590D01*
X2013130Y905110D02*
X2015130D01*
X2013130Y918610D02*
X2015130D01*
X2013130Y933050D02*
X2015130D01*
X2013130Y946550D02*
X2015130D01*
X2010590Y877170D02*
X2012590D01*
X2010590Y890670D02*
X2012590D01*
X279410Y757010D02*
X296960D01*
X279410Y685910D02*
Y757010D01*
Y685910D02*
X296960D01*
X332960D02*
X350510D01*
Y757010D01*
X332960D02*
X350510D01*
X332960Y476868D02*
X350510D01*
Y547968D01*
X332960D02*
X350510D01*
X279410D02*
X296960D01*
X279410Y476868D02*
Y547968D01*
Y476868D02*
X296960D01*
X1410100Y346410D02*
X1460100D01*
X1790830Y638810D02*
Y651510D01*
X1775330Y638810D02*
Y651510D01*
Y638810D02*
X1790830D01*
X1751470Y673880D02*
Y682353D01*
X1768970Y673880D02*
Y682353D01*
X1728610Y673817D02*
Y682289D01*
X1746110Y673817D02*
Y682289D01*
X1794900Y624940D02*
Y645060D01*
X1811900Y624940D02*
Y645060D01*
X1415624Y699910D02*
X1424096D01*
X1415624Y717410D02*
X1424096D01*
X1401576Y594830D02*
X1422527D01*
X1401576Y564830D02*
X1422527D01*
X2050829Y1209820D02*
Y1218293D01*
X2033330Y1209820D02*
Y1218293D01*
X2050990Y1112834D02*
Y1121306D01*
X2033490Y1112834D02*
Y1121306D01*
X2050280Y1021323D02*
Y1029796D01*
X2032781Y1021323D02*
Y1029796D01*
X2006599Y1010604D02*
Y1031542D01*
X2025662Y1010604D02*
Y1031542D01*
X2007309Y1102051D02*
Y1122989D01*
X2026371Y1102051D02*
Y1122989D01*
X2007149Y1198571D02*
Y1219509D01*
X2026211Y1198571D02*
Y1219509D01*
X1670311Y647563D02*
Y697563D01*
X1686311Y647563D02*
Y697563D01*
X1670311D02*
X1686311D01*
X1670311Y647563D02*
X1686311D01*
X873760Y287440D02*
Y293440D01*
X870760Y290440D02*
X876760D01*
X889160Y375440D02*
X896760D01*
X850760D02*
X858360D01*
X850760Y299440D02*
Y375440D01*
X889160Y299440D02*
X896760D01*
X850760D02*
X858360D01*
X896760D02*
Y375440D01*
X873760Y468560D02*
Y474560D01*
X870760Y471560D02*
X876760D01*
X850760Y386560D02*
X858360D01*
X889160D02*
X896760D01*
Y462560D01*
X850760D02*
X858360D01*
X889160D02*
X896760D01*
X850760Y386560D02*
Y462560D01*
X1092200Y468180D02*
Y474180D01*
X1089200Y471180D02*
X1095200D01*
X1069200Y386180D02*
X1076800D01*
X1107600D02*
X1115200D01*
Y462180D01*
X1069200D02*
X1076800D01*
X1107600D02*
X1115200D01*
X1069200Y386180D02*
Y462180D01*
X1143000Y288200D02*
Y294200D01*
X1140000Y291200D02*
X1146000D01*
X1158400Y376200D02*
X1166000D01*
X1120000D02*
X1127600D01*
X1120000Y300200D02*
Y376200D01*
X1158400Y300200D02*
X1166000D01*
X1120000D02*
X1127600D01*
X1166000D02*
Y376200D01*
X971410Y353904D02*
Y362376D01*
X953910Y353904D02*
Y362376D01*
X924560Y287820D02*
Y293820D01*
X921560Y290820D02*
X927560D01*
X939960Y375820D02*
X947560D01*
X901560D02*
X909160D01*
X901560Y299820D02*
Y375820D01*
X939960Y299820D02*
X947560D01*
X901560D02*
X909160D01*
X947560D02*
Y375820D01*
X924560Y468560D02*
Y474560D01*
X921560Y471560D02*
X927560D01*
X901560Y386560D02*
X909160D01*
X939960D02*
X947560D01*
Y462560D01*
X901560D02*
X909160D01*
X939960D02*
X947560D01*
X901560Y386560D02*
Y462560D01*
X953910Y397084D02*
Y405556D01*
X971410Y397084D02*
Y405556D01*
X1143000Y468180D02*
Y474180D01*
X1140000Y471180D02*
X1146000D01*
X1120000Y386180D02*
X1127600D01*
X1158400D02*
X1166000D01*
Y462180D01*
X1120000D02*
X1127600D01*
X1158400D02*
X1166000D01*
X1120000Y386180D02*
Y462180D01*
X1092200Y287820D02*
Y293820D01*
X1089200Y290820D02*
X1095200D01*
X1107600Y375820D02*
X1115200D01*
X1069200D02*
X1076800D01*
X1069200Y299820D02*
Y375820D01*
X1107600Y299820D02*
X1115200D01*
X1069200D02*
X1076800D01*
X1115200D02*
Y375820D01*
X1415624Y542430D02*
X1424096D01*
X1415624Y559930D02*
X1424096D01*
X1321930Y399624D02*
Y408097D01*
X1304430Y399624D02*
Y408097D01*
X1415560Y600850D02*
X1424033D01*
X1415560Y618350D02*
X1424033D01*
X1172350Y399560D02*
Y408033D01*
X1189850Y399560D02*
Y408033D01*
X1328280Y348460D02*
Y424460D01*
X1366680D02*
X1374280D01*
X1328280D02*
X1335880D01*
X1374280Y348460D02*
Y424460D01*
X1366680Y348460D02*
X1374280D01*
X1328280D02*
X1335880D01*
X1348280Y433460D02*
X1354280D01*
X1351280Y430460D02*
Y436460D01*
X1189850Y356380D02*
Y364853D01*
X1172350Y356380D02*
Y364853D01*
X1358751Y931663D02*
Y1256763D01*
Y931663D02*
X1633050D01*
Y1256763D01*
X1358751D02*
X1633050D01*
X1415560Y750710D02*
X1424033D01*
X1415560Y768210D02*
X1424033D01*
X1415687Y773570D02*
X1424160D01*
X1415687Y791070D02*
X1424160D01*
X1601330Y877144D02*
Y885616D01*
X1583830Y877144D02*
Y885616D01*
X1571390Y880290D02*
Y882290D01*
X1557890Y880290D02*
Y882290D01*
X1574640Y853240D02*
X1583640D01*
X1574640Y828240D02*
X1583640D01*
X1403985Y860295D02*
X1416685D01*
X1403985Y875795D02*
X1416685D01*
X1403985Y860295D02*
Y875795D01*
X1633350Y875030D02*
Y887730D01*
X1617850Y875030D02*
Y887730D01*
Y875030D02*
X1633350D01*
X1407940Y900290D02*
X1416413D01*
X1407940Y882790D02*
X1416413D01*
X1404311Y743591D02*
X1425249D01*
X1404311Y724529D02*
X1425249D01*
X1404841Y644531D02*
X1425779D01*
X1404841Y625469D02*
X1425779D01*
X504378Y780168D02*
X520364D01*
X504378Y834199D02*
X520364D01*
X583117D02*
X599104D01*
X583117Y780168D02*
X599104D01*
X489573Y646238D02*
X505560D01*
X489573Y592208D02*
X505560D01*
X567957D02*
X583944D01*
X567957Y646238D02*
X583944D01*
D13*
X314960Y778460D02*
G03*
X314960Y777460I0J-500D01*
G01*
D02*
G03*
X314960Y778460I0J500D01*
G01*
X314960Y455418D02*
G03*
X314960Y456418I0J500D01*
G01*
D02*
G03*
X314960Y455418I0J-500D01*
G01*
X544871Y470563D02*
X697320D01*
Y580563D01*
X544871D02*
X697320D01*
X544871Y470563D02*
Y580563D01*
X429860Y790500D02*
Y900500D01*
X277410Y790500D02*
X429860D01*
X277410D02*
Y900500D01*
X429860D01*
X698826Y657883D02*
Y767883D01*
X546376Y657883D02*
X698826D01*
X546376D02*
Y767883D01*
X698826D01*
X378786Y657883D02*
Y767883D01*
X531236D01*
Y657883D02*
Y767883D01*
X378786Y657883D02*
X531236D01*
X530586Y469923D02*
Y579923D01*
X378136Y469923D02*
X530586D01*
X378136D02*
Y579923D01*
X530586D01*
D14*
X1487600Y391160D02*
G03*
X1487600Y391160I-52500J0D01*
G01*
D15*
X1445593Y570080D02*
G03*
X1445593Y570080I-1250J0D01*
G01*
X1655060Y700613D02*
G03*
X1655060Y700613I-1250J0D01*
G01*
X1640300Y1155163D02*
G03*
X1640300Y1155163I-1250J0D01*
G01*
D16*
X891540Y546100D02*
G03*
X891540Y546100I-3810J0D01*
G01*
X806450Y287020D02*
G03*
X806450Y287020I-3810J0D01*
G01*
X1261110Y281940D02*
G03*
X1261110Y281940I-3810J0D01*
G01*
D17*
X1889470Y861826D02*
Y1221826D01*
X1679471Y861826D02*
Y1221826D01*
X1829471Y861826D02*
X1889470D01*
X1679471Y1221826D02*
X1699471D01*
X1679471Y861826D02*
X1699471D01*
X1829471Y1221826D02*
X1889470D01*
X2059580Y1049020D02*
X2141580D01*
X2059580Y642620D02*
X2141580D01*
Y1049020D01*
X2059580Y642620D02*
Y1049020D01*
X268611Y278503D02*
Y360503D01*
X471811Y278503D02*
Y360503D01*
X268611D02*
X471811D01*
X268611Y278503D02*
X471811D01*
X2059580Y632460D02*
X2141580D01*
X2059580Y429260D02*
X2141580D01*
Y632460D01*
X2059580Y429260D02*
Y632460D01*
Y1262380D02*
X2141580D01*
X2059580Y1059180D02*
X2141580D01*
Y1262380D01*
X2059580Y1059180D02*
Y1262380D01*
X1546080Y856290D02*
Y873690D01*
X1512080Y856290D02*
Y873690D01*
D18*
X1830712Y743324D02*
X1828173Y740785D01*
Y735707D01*
X1830712Y733167D01*
X1840869D01*
X1843408Y735707D01*
Y740785D01*
X1840869Y743324D01*
X1830712Y748402D02*
X1828173Y750942D01*
Y756020D01*
X1830712Y758559D01*
X1833251D01*
X1835791Y756020D01*
Y753481D01*
Y756020D01*
X1838330Y758559D01*
X1840869D01*
X1843408Y756020D01*
Y750942D01*
X1840869Y748402D01*
X1830712Y763637D02*
X1828173Y766177D01*
Y771255D01*
X1830712Y773794D01*
X1840869D01*
X1843408Y771255D01*
Y766177D01*
X1840869Y763637D01*
X1830712D01*
X1781171Y745122D02*
X1778632Y742583D01*
Y737505D01*
X1781171Y734966D01*
X1791328D01*
X1793867Y737505D01*
Y742583D01*
X1791328Y745122D01*
X1793867Y760357D02*
Y750201D01*
X1783710Y760357D01*
X1781171D01*
X1778632Y757818D01*
Y752740D01*
X1781171Y750201D01*
Y765436D02*
X1778632Y767975D01*
Y773053D01*
X1781171Y775592D01*
X1783710D01*
X1786250Y773053D01*
X1788789Y775592D01*
X1791328D01*
X1793867Y773053D01*
Y767975D01*
X1791328Y765436D01*
X1788789D01*
X1786250Y767975D01*
X1783710Y765436D01*
X1781171D01*
X1786250Y767975D02*
Y773053D01*
X878843Y505457D02*
Y492761D01*
X881383Y490222D01*
X886461D01*
X889000Y492761D01*
Y505457D01*
X894078Y490222D02*
X899157D01*
X896618D01*
Y505457D01*
X894078Y502918D01*
X961394Y276858D02*
Y264162D01*
X963933Y261623D01*
X969012D01*
X971551Y264162D01*
Y276858D01*
X986786Y261623D02*
X976629D01*
X986786Y271779D01*
Y274319D01*
X984247Y276858D01*
X979168D01*
X976629Y274319D01*
X1508763Y909323D02*
Y924557D01*
X1516381D01*
X1518920Y922018D01*
Y916940D01*
X1516381Y914401D01*
X1508763D01*
X1513842D02*
X1518920Y909323D01*
X1523998D02*
X1529077D01*
X1526538D01*
Y924557D01*
X1523998Y922018D01*
X772161Y284477D02*
X767083D01*
X769622D01*
Y271781D01*
X767083Y269242D01*
X764543D01*
X762004Y271781D01*
X777239Y281938D02*
X779778Y284477D01*
X784857D01*
X787396Y281938D01*
Y279399D01*
X784857Y276860D01*
X782318D01*
X784857D01*
X787396Y274321D01*
Y271781D01*
X784857Y269242D01*
X779778D01*
X777239Y271781D01*
X1221741Y284477D02*
X1216663D01*
X1219202D01*
Y271781D01*
X1216663Y269242D01*
X1214123D01*
X1211584Y271781D01*
X1236976Y269242D02*
X1226819D01*
X1236976Y279399D01*
Y281938D01*
X1234437Y284477D01*
X1229358D01*
X1226819Y281938D01*
X1179833Y441958D02*
X1177294Y444497D01*
X1172215D01*
X1169676Y441958D01*
Y431801D01*
X1172215Y429262D01*
X1177294D01*
X1179833Y431801D01*
X1184911Y429262D02*
X1189990D01*
X1187450D01*
Y444497D01*
X1184911Y441958D01*
X1207764Y444497D02*
X1197607D01*
Y436880D01*
X1202685Y439419D01*
X1205225D01*
X1207764Y436880D01*
Y431801D01*
X1205225Y429262D01*
X1200146D01*
X1197607Y431801D01*
X1182373Y462278D02*
X1179834Y464817D01*
X1174755D01*
X1172216Y462278D01*
Y452121D01*
X1174755Y449582D01*
X1179834D01*
X1182373Y452121D01*
X1187451Y449582D02*
X1192530D01*
X1189990D01*
Y464817D01*
X1187451Y462278D01*
X1200147D02*
X1202686Y464817D01*
X1207765D01*
X1210304Y462278D01*
Y452121D01*
X1207765Y449582D01*
X1202686D01*
X1200147Y452121D01*
Y462278D01*
X1041401D02*
X1038862Y464817D01*
X1033783D01*
X1031244Y462278D01*
Y452121D01*
X1033783Y449582D01*
X1038862D01*
X1041401Y452121D01*
X1046479D02*
X1049018Y449582D01*
X1054097D01*
X1056636Y452121D01*
Y462278D01*
X1054097Y464817D01*
X1049018D01*
X1046479Y462278D01*
Y459739D01*
X1049018Y457200D01*
X1056636D01*
X965201Y439418D02*
X962662Y441958D01*
X957583D01*
X955044Y439418D01*
Y429262D01*
X957583Y426722D01*
X962662D01*
X965201Y429262D01*
X970279Y439418D02*
X972818Y441958D01*
X977897D01*
X980436Y439418D01*
Y436879D01*
X977897Y434340D01*
X980436Y431801D01*
Y429262D01*
X977897Y426722D01*
X972818D01*
X970279Y429262D01*
Y431801D01*
X972818Y434340D01*
X970279Y436879D01*
Y439418D01*
X972818Y434340D02*
X977897D01*
X965201Y462278D02*
X962662Y464818D01*
X957583D01*
X955044Y462278D01*
Y452122D01*
X957583Y449582D01*
X962662D01*
X965201Y452122D01*
X970279Y464818D02*
X980436D01*
Y462278D01*
X970279Y452122D01*
Y449582D01*
X853441Y485138D02*
X850902Y487677D01*
X845823D01*
X843284Y485138D01*
Y474982D01*
X845823Y472443D01*
X850902D01*
X853441Y474982D01*
X868676Y487677D02*
X863597Y485138D01*
X858519Y480060D01*
Y474982D01*
X861058Y472443D01*
X866137D01*
X868676Y474982D01*
Y477521D01*
X866137Y480060D01*
X858519D01*
X962663Y332738D02*
X960123Y335277D01*
X955045D01*
X952506Y332738D01*
Y322582D01*
X955045Y320042D01*
X960123D01*
X962663Y322582D01*
X977898Y320042D02*
X967741D01*
X977898Y330199D01*
Y332738D01*
X975358Y335277D01*
X970280D01*
X967741Y332738D01*
X982976Y320042D02*
X988054D01*
X985515D01*
Y335277D01*
X982976Y332738D01*
X911863Y279398D02*
X909324Y281938D01*
X904246D01*
X901707Y279398D01*
Y269242D01*
X904246Y266702D01*
X909324D01*
X911863Y269242D01*
X927098Y266702D02*
X916942D01*
X927098Y276859D01*
Y279398D01*
X924559Y281938D01*
X919481D01*
X916942Y279398D01*
X932177D02*
X934716Y281938D01*
X939794D01*
X942333Y279398D01*
Y269242D01*
X939794Y266702D01*
X934716D01*
X932177Y269242D01*
Y279398D01*
X864873D02*
X862334Y281938D01*
X857255D01*
X854716Y279398D01*
Y269242D01*
X857255Y266702D01*
X862334D01*
X864873Y269242D01*
X869951Y266702D02*
X875030D01*
X872490D01*
Y281938D01*
X869951Y279398D01*
X882647Y269242D02*
X885186Y266702D01*
X890265D01*
X892804Y269242D01*
Y279398D01*
X890265Y281938D01*
X885186D01*
X882647Y279398D01*
Y276859D01*
X885186Y274320D01*
X892804D01*
X1179833Y332738D02*
X1177294Y335277D01*
X1172215D01*
X1169676Y332738D01*
Y322582D01*
X1172215Y320042D01*
X1177294D01*
X1179833Y322582D01*
X1184911Y320042D02*
X1189990D01*
X1187450D01*
Y335277D01*
X1184911Y332738D01*
X1197607D02*
X1200146Y335277D01*
X1205225D01*
X1207764Y332738D01*
Y330199D01*
X1205225Y327660D01*
X1207764Y325121D01*
Y322582D01*
X1205225Y320042D01*
X1200146D01*
X1197607Y322582D01*
Y325121D01*
X1200146Y327660D01*
X1197607Y330199D01*
Y332738D01*
X1200146Y327660D02*
X1205225D01*
X1134113Y281938D02*
X1131574Y284478D01*
X1126495D01*
X1123956Y281938D01*
Y271782D01*
X1126495Y269242D01*
X1131574D01*
X1134113Y271782D01*
X1139191Y269242D02*
X1144270D01*
X1141730D01*
Y284478D01*
X1139191Y281938D01*
X1151887Y284478D02*
X1162044D01*
Y281938D01*
X1151887Y271782D01*
Y269242D01*
X1083313Y281938D02*
X1080774Y284478D01*
X1075695D01*
X1073156Y281938D01*
Y271782D01*
X1075695Y269242D01*
X1080774D01*
X1083313Y271782D01*
X1088391Y269242D02*
X1093470D01*
X1090930D01*
Y284478D01*
X1088391Y281938D01*
X1111244Y284478D02*
X1106165Y281938D01*
X1101087Y276860D01*
Y271782D01*
X1103626Y269242D01*
X1108705D01*
X1111244Y271782D01*
Y274321D01*
X1108705Y276860D01*
X1101087D01*
X1598936Y756923D02*
Y772158D01*
X1606554D01*
X1609093Y769618D01*
Y764540D01*
X1606554Y762001D01*
X1598936D01*
X1604014D02*
X1609093Y756923D01*
X1614171D02*
X1619250D01*
X1616710D01*
Y772158D01*
X1614171Y769618D01*
X1626867D02*
X1629406Y772158D01*
X1634485D01*
X1637024Y769618D01*
Y767079D01*
X1634485Y764540D01*
X1631945D01*
X1634485D01*
X1637024Y762001D01*
Y759462D01*
X1634485Y756923D01*
X1629406D01*
X1626867Y759462D01*
X1793244Y604523D02*
Y619757D01*
X1800862D01*
X1803401Y617218D01*
Y612140D01*
X1800862Y609601D01*
X1793244D01*
X1798322D02*
X1803401Y604523D01*
X1818636Y619757D02*
X1808479D01*
Y612140D01*
X1813557Y614679D01*
X1816097D01*
X1818636Y612140D01*
Y607062D01*
X1816097Y604523D01*
X1811018D01*
X1808479Y607062D01*
X1478284Y904242D02*
Y919477D01*
X1485902D01*
X1488441Y916938D01*
Y911860D01*
X1485902Y909321D01*
X1478284D01*
X1483362D02*
X1488441Y904242D01*
X1501137D02*
Y919477D01*
X1493519Y911860D01*
X1503676D01*
X1450340Y850902D02*
Y861058D01*
X1447801Y863597D01*
X1442722D01*
X1440183Y861058D01*
Y850902D01*
X1442722Y848363D01*
X1447801D01*
X1445262Y853441D02*
X1450340Y848363D01*
X1447801D02*
X1450340Y850902D01*
X1455418Y848363D02*
X1460497D01*
X1457958D01*
Y863597D01*
X1455418Y861058D01*
X1356999Y875662D02*
Y860427D01*
X1364617D01*
X1367156Y862966D01*
Y873123D01*
X1364617Y875662D01*
X1356999D01*
X1382391Y860427D02*
X1372234D01*
X1382391Y870584D01*
Y873123D01*
X1379852Y875662D01*
X1374773D01*
X1372234Y873123D01*
X1371474Y896618D02*
X1368935Y899157D01*
X1363856D01*
X1361317Y896618D01*
Y886461D01*
X1363856Y883922D01*
X1368935D01*
X1371474Y886461D01*
X1384170Y883922D02*
Y899157D01*
X1376552Y891540D01*
X1386709D01*
X677555Y647161D02*
Y631926D01*
X685172D01*
X687711Y634465D01*
Y637004D01*
X685172Y639543D01*
X677555D01*
X685172D01*
X687711Y642082D01*
Y644621D01*
X685172Y647161D01*
X677555D01*
X692790D02*
X702946D01*
Y644621D01*
X692790Y634465D01*
Y631926D01*
X372755Y606521D02*
Y591286D01*
X380372D01*
X382911Y593825D01*
Y596364D01*
X380372Y598903D01*
X372755D01*
X380372D01*
X382911Y601442D01*
Y603981D01*
X380372Y606521D01*
X372755D01*
X398146D02*
X393068Y603981D01*
X387990Y598903D01*
Y593825D01*
X390529Y591286D01*
X395607D01*
X398146Y593825D01*
Y596364D01*
X395607Y598903D01*
X387990D01*
X675015Y606521D02*
Y591286D01*
X682632D01*
X685171Y593825D01*
Y596364D01*
X682632Y598903D01*
X675015D01*
X682632D01*
X685171Y601442D01*
Y603981D01*
X682632Y606521D01*
X675015D01*
X700406D02*
X690250D01*
Y598903D01*
X695328Y601442D01*
X697867D01*
X700406Y598903D01*
Y593825D01*
X697867Y591286D01*
X692789D01*
X690250Y593825D01*
X372755Y644621D02*
Y629385D01*
X380372D01*
X382911Y631925D01*
Y634464D01*
X380372Y637003D01*
X372755D01*
X380372D01*
X382911Y639542D01*
Y642081D01*
X380372Y644621D01*
X372755D01*
X395607Y629385D02*
Y644621D01*
X387990Y637003D01*
X398146D01*
X440624Y885817D02*
Y870582D01*
X448242D01*
X450781Y873122D01*
Y875661D01*
X448242Y878200D01*
X440624D01*
X448242D01*
X450781Y880739D01*
Y883278D01*
X448242Y885817D01*
X440624D01*
X455859Y883278D02*
X458398Y885817D01*
X463476D01*
X466016Y883278D01*
Y880739D01*
X463476Y878200D01*
X460937D01*
X463476D01*
X466016Y875661D01*
Y873122D01*
X463476Y870582D01*
X458398D01*
X455859Y873122D01*
X641353Y797558D02*
X638814Y800098D01*
X633735D01*
X631196Y797558D01*
Y787402D01*
X633735Y784863D01*
X638814D01*
X641353Y787402D01*
X646431Y784863D02*
X651510D01*
X648970D01*
Y800098D01*
X646431Y797558D01*
X666745Y784863D02*
Y800098D01*
X659127Y792480D01*
X669284D01*
X628023Y603981D02*
X625484Y606521D01*
X620406D01*
X617867Y603981D01*
Y593825D01*
X620406Y591286D01*
X625484D01*
X628023Y593825D01*
X633102Y591286D02*
X638180D01*
X635641D01*
Y606521D01*
X633102Y603981D01*
X655954Y591286D02*
X645798D01*
X655954Y601442D01*
Y603981D01*
X653415Y606521D01*
X648337D01*
X645798Y603981D01*
X447247Y794481D02*
X444708Y797021D01*
X439630D01*
X437090Y794481D01*
Y784325D01*
X439630Y781786D01*
X444708D01*
X447247Y784325D01*
X452326Y781786D02*
X457404D01*
X454865D01*
Y797021D01*
X452326Y794481D01*
X465022Y781786D02*
X470100D01*
X467561D01*
Y797021D01*
X465022Y794481D01*
X427363Y603981D02*
X424824Y606521D01*
X419746D01*
X417207Y603981D01*
Y593825D01*
X419746Y591286D01*
X424824D01*
X427363Y593825D01*
X432442Y591286D02*
X437520D01*
X434981D01*
Y606521D01*
X432442Y603981D01*
X445138D02*
X447677Y606521D01*
X452755D01*
X455294Y603981D01*
Y601442D01*
X452755Y598903D01*
X450216D01*
X452755D01*
X455294Y596364D01*
Y593825D01*
X452755Y591286D01*
X447677D01*
X445138Y593825D01*
X1453293Y763909D02*
X1450754Y766448D01*
X1445676D01*
X1443136Y763909D01*
Y753752D01*
X1445676Y751213D01*
X1450754D01*
X1453293Y753752D01*
X1458371Y763909D02*
X1460911Y766448D01*
X1465989D01*
X1468528Y763909D01*
Y761370D01*
X1465989Y758831D01*
X1463450D01*
X1465989D01*
X1468528Y756291D01*
Y753752D01*
X1465989Y751213D01*
X1460911D01*
X1458371Y753752D01*
X1473607Y766448D02*
X1483763D01*
Y763909D01*
X1473607Y753752D01*
Y751213D01*
X1308102Y350523D02*
X1305562Y347984D01*
Y342906D01*
X1308102Y340367D01*
X1318258D01*
X1320797Y342906D01*
Y347984D01*
X1318258Y350523D01*
X1320797Y363219D02*
X1305562D01*
X1313180Y355602D01*
Y365758D01*
X1308102Y370837D02*
X1305562Y373376D01*
Y378454D01*
X1308102Y380993D01*
X1318258D01*
X1320797Y378454D01*
Y373376D01*
X1318258Y370837D01*
X1308102D01*
X1341123Y335658D02*
X1338584Y338197D01*
X1333506D01*
X1330967Y335658D01*
Y325501D01*
X1333506Y322962D01*
X1338584D01*
X1341123Y325501D01*
X1346202Y335658D02*
X1348741Y338197D01*
X1353819D01*
X1356358Y335658D01*
Y333119D01*
X1353819Y330580D01*
X1351280D01*
X1353819D01*
X1356358Y328041D01*
Y325501D01*
X1353819Y322962D01*
X1348741D01*
X1346202Y325501D01*
X1361437D02*
X1363976Y322962D01*
X1369054D01*
X1371593Y325501D01*
Y335658D01*
X1369054Y338197D01*
X1363976D01*
X1361437Y335658D01*
Y333119D01*
X1363976Y330580D01*
X1371593D01*
X1386843Y335278D02*
X1384304Y337817D01*
X1379226D01*
X1376687Y335278D01*
Y325122D01*
X1379226Y322583D01*
X1384304D01*
X1386843Y325122D01*
X1391922Y335278D02*
X1394461Y337817D01*
X1399539D01*
X1402078Y335278D01*
Y332739D01*
X1399539Y330200D01*
X1397000D01*
X1399539D01*
X1402078Y327661D01*
Y325122D01*
X1399539Y322583D01*
X1394461D01*
X1391922Y325122D01*
X1407157Y335278D02*
X1409696Y337817D01*
X1414774D01*
X1417313Y335278D01*
Y332739D01*
X1414774Y330200D01*
X1417313Y327661D01*
Y325122D01*
X1414774Y322583D01*
X1409696D01*
X1407157Y325122D01*
Y327661D01*
X1409696Y330200D01*
X1407157Y332739D01*
Y335278D01*
X1409696Y330200D02*
X1414774D01*
X1452947Y787398D02*
X1450408Y789938D01*
X1445329D01*
X1442790Y787398D01*
Y777242D01*
X1445329Y774702D01*
X1450408D01*
X1452947Y777242D01*
X1458025Y787398D02*
X1460564Y789938D01*
X1465643D01*
X1468182Y787398D01*
Y784859D01*
X1465643Y782320D01*
X1463103D01*
X1465643D01*
X1468182Y779781D01*
Y777242D01*
X1465643Y774702D01*
X1460564D01*
X1458025Y777242D01*
X1483417Y789938D02*
X1478339Y787398D01*
X1473260Y782320D01*
Y777242D01*
X1475799Y774702D01*
X1480878D01*
X1483417Y777242D01*
Y779781D01*
X1480878Y782320D01*
X1473260D01*
X269244Y652777D02*
Y637542D01*
X276862D01*
X279401Y640082D01*
Y642621D01*
X276862Y645160D01*
X269244D01*
X276862D01*
X279401Y647699D01*
Y650238D01*
X276862Y652777D01*
X269244D01*
X294636Y637542D02*
X284479D01*
X294636Y647699D01*
Y650238D01*
X292097Y652777D01*
X287018D01*
X284479Y650238D01*
X271783Y598876D02*
Y583641D01*
X279401D01*
X281940Y586180D01*
Y588719D01*
X279401Y591258D01*
X271783D01*
X279401D01*
X281940Y593797D01*
Y596336D01*
X279401Y598876D01*
X271783D01*
X287018Y583641D02*
X292097D01*
X289558D01*
Y598876D01*
X287018Y596336D01*
X1447804Y690878D02*
Y678182D01*
X1450343Y675642D01*
X1455422D01*
X1457961Y678182D01*
Y690878D01*
X1473196D02*
X1463039D01*
Y683260D01*
X1468118Y685799D01*
X1470657D01*
X1473196Y683260D01*
Y678182D01*
X1470657Y675642D01*
X1465578D01*
X1463039Y678182D01*
X1468124Y601978D02*
Y589282D01*
X1470663Y586743D01*
X1475742D01*
X1478281Y589282D01*
Y601978D01*
X1493516D02*
X1488438Y599438D01*
X1483359Y594360D01*
Y589282D01*
X1485898Y586743D01*
X1490977D01*
X1493516Y589282D01*
Y591821D01*
X1490977Y594360D01*
X1483359D01*
X1666244Y640078D02*
Y627382D01*
X1668783Y624842D01*
X1673862D01*
X1676401Y627382D01*
Y640078D01*
X1689097Y624842D02*
Y640078D01*
X1681479Y632460D01*
X1691636D01*
X1960884Y1259837D02*
Y1247141D01*
X1963423Y1244602D01*
X1968502D01*
X1971041Y1247141D01*
Y1259837D01*
X1976119Y1257298D02*
X1978658Y1259837D01*
X1983737D01*
X1986276Y1257298D01*
Y1254759D01*
X1983737Y1252220D01*
X1981198D01*
X1983737D01*
X1986276Y1249681D01*
Y1247141D01*
X1983737Y1244602D01*
X1978658D01*
X1976119Y1247141D01*
X1360176Y520703D02*
Y535938D01*
X1367794D01*
X1370333Y533398D01*
Y528320D01*
X1367794Y525781D01*
X1360176D01*
X1365255D02*
X1370333Y520703D01*
X1375411D02*
X1380490D01*
X1377950D01*
Y535938D01*
X1375411Y533398D01*
X1395725Y520703D02*
Y535938D01*
X1388107Y528320D01*
X1398264D01*
X1731016Y624842D02*
Y640078D01*
X1738634D01*
X1741173Y637538D01*
Y632460D01*
X1738634Y629921D01*
X1731016D01*
X1736095D02*
X1741173Y624842D01*
X1746251D02*
X1751330D01*
X1748790D01*
Y640078D01*
X1746251Y637538D01*
X1769104Y624842D02*
X1758947D01*
X1769104Y634999D01*
Y637538D01*
X1766565Y640078D01*
X1761486D01*
X1758947Y637538D01*
X1954855Y793019D02*
Y808254D01*
X1962473D01*
X1965012Y805715D01*
Y800637D01*
X1962473Y798098D01*
X1954855D01*
X1959933D02*
X1965012Y793019D01*
X1970090D02*
X1975168D01*
X1972629D01*
Y808254D01*
X1970090Y805715D01*
X1982786Y793019D02*
X1987864D01*
X1985325D01*
Y808254D01*
X1982786Y805715D01*
X1949376Y820959D02*
Y836195D01*
X1956993D01*
X1959533Y833655D01*
Y828577D01*
X1956993Y826038D01*
X1949376D01*
X1954454D02*
X1959533Y820959D01*
X1964611D02*
X1969689D01*
X1967150D01*
Y836195D01*
X1964611Y833655D01*
X1977307D02*
X1979846Y836195D01*
X1984924D01*
X1987464Y833655D01*
Y823499D01*
X1984924Y820959D01*
X1979846D01*
X1977307Y823499D01*
Y833655D01*
X1961424Y848899D02*
Y864135D01*
X1969041D01*
X1971580Y861595D01*
Y856517D01*
X1969041Y853978D01*
X1961424D01*
X1966502D02*
X1971580Y848899D01*
X1976659Y851439D02*
X1979198Y848899D01*
X1984276D01*
X1986815Y851439D01*
Y861595D01*
X1984276Y864135D01*
X1979198D01*
X1976659Y861595D01*
Y859056D01*
X1979198Y856517D01*
X1986815D01*
X1961114Y876839D02*
Y892075D01*
X1968731D01*
X1971270Y889535D01*
Y884457D01*
X1968731Y881918D01*
X1961114D01*
X1966192D02*
X1971270Y876839D01*
X1976349Y889535D02*
X1978888Y892075D01*
X1983966D01*
X1986505Y889535D01*
Y886996D01*
X1983966Y884457D01*
X1986505Y881918D01*
Y879379D01*
X1983966Y876839D01*
X1978888D01*
X1976349Y879379D01*
Y881918D01*
X1978888Y884457D01*
X1976349Y886996D01*
Y889535D01*
X1978888Y884457D02*
X1983966D01*
X1963654Y904779D02*
Y920014D01*
X1971271D01*
X1973810Y917475D01*
Y912397D01*
X1971271Y909858D01*
X1963654D01*
X1968732D02*
X1973810Y904779D01*
X1978889Y920014D02*
X1989046D01*
Y917475D01*
X1978889Y907319D01*
Y904779D01*
X1963964Y932719D02*
Y947954D01*
X1971581D01*
X1974120Y945415D01*
Y940337D01*
X1971581Y937798D01*
X1963964D01*
X1969042D02*
X1974120Y932719D01*
X1989355Y947954D02*
X1984277Y945415D01*
X1979199Y940337D01*
Y935259D01*
X1981738Y932719D01*
X1986816D01*
X1989355Y935259D01*
Y937798D01*
X1986816Y940337D01*
X1979199D01*
X1557024Y805182D02*
Y820417D01*
X1564642D01*
X1567181Y817878D01*
Y812800D01*
X1564642Y810261D01*
X1557024D01*
X1562103D02*
X1567181Y805182D01*
X1572259Y817878D02*
X1574798Y820417D01*
X1579877D01*
X1582416Y817878D01*
Y815339D01*
X1579877Y812800D01*
X1577337D01*
X1579877D01*
X1582416Y810261D01*
Y807722D01*
X1579877Y805182D01*
X1574798D01*
X1572259Y807722D01*
X1534164Y909323D02*
Y924557D01*
X1541782D01*
X1544321Y922018D01*
Y916940D01*
X1541782Y914401D01*
X1534164D01*
X1539243D02*
X1544321Y909323D01*
X1559556D02*
X1549399D01*
X1559556Y919479D01*
Y922018D01*
X1557017Y924557D01*
X1551938D01*
X1549399Y922018D01*
X1363354Y924021D02*
Y908785D01*
Y913864D01*
X1373510Y924021D01*
X1365893Y916403D01*
X1373510Y908785D01*
X1378589D02*
X1383667D01*
X1381128D01*
Y924021D01*
X1378589Y921481D01*
X2037081Y444497D02*
X2032003D01*
X2034542D01*
Y431801D01*
X2032003Y429262D01*
X2029463D01*
X2026924Y431801D01*
X2052316Y444497D02*
X2042159D01*
Y436880D01*
X2047238Y439419D01*
X2049777D01*
X2052316Y436880D01*
Y431801D01*
X2049777Y429262D01*
X2044698D01*
X2042159Y431801D01*
X2039621Y660397D02*
X2034543D01*
X2037082D01*
Y647702D01*
X2034543Y645163D01*
X2032003D01*
X2029464Y647702D01*
X2054856Y660397D02*
X2049778Y657858D01*
X2044699Y652780D01*
Y647702D01*
X2047238Y645163D01*
X2052317D01*
X2054856Y647702D01*
Y650241D01*
X2052317Y652780D01*
X2044699D01*
X2039621Y1262377D02*
X2034543D01*
X2037082D01*
Y1249681D01*
X2034543Y1247142D01*
X2032003D01*
X2029464Y1249681D01*
X2052317Y1247142D02*
Y1262377D01*
X2044699Y1254760D01*
X2054856D01*
X487051Y299181D02*
X481972D01*
X484511D01*
Y286485D01*
X481972Y283946D01*
X479433D01*
X476894Y286485D01*
X492129Y283946D02*
X497207D01*
X494668D01*
Y299181D01*
X492129Y296641D01*
X1775464Y685798D02*
Y670563D01*
X1783082D01*
X1785621Y673102D01*
Y683258D01*
X1783082Y685798D01*
X1775464D01*
X1790699Y683258D02*
X1793238Y685798D01*
X1798317D01*
X1800856Y683258D01*
Y680719D01*
X1798317Y678180D01*
X1795777D01*
X1798317D01*
X1800856Y675641D01*
Y673102D01*
X1798317Y670563D01*
X1793238D01*
X1790699Y673102D01*
X1615443Y922528D02*
Y907292D01*
X1623061D01*
X1625600Y909832D01*
Y919988D01*
X1623061Y922528D01*
X1615443D01*
X1630678Y907292D02*
X1635757D01*
X1633218D01*
Y922528D01*
X1630678Y919988D01*
X1452883Y619758D02*
X1450344Y622298D01*
X1445266D01*
X1442727Y619758D01*
Y609602D01*
X1445266Y607062D01*
X1450344D01*
X1452883Y609602D01*
X1465579Y607062D02*
Y622298D01*
X1457962Y614680D01*
X1468118D01*
X1483353Y622298D02*
X1473197D01*
Y614680D01*
X1478275Y617219D01*
X1480814D01*
X1483353Y614680D01*
Y609602D01*
X1480814Y607062D01*
X1475736D01*
X1473197Y609602D01*
X1453413Y640078D02*
X1450874Y642618D01*
X1445796D01*
X1443256Y640078D01*
Y629922D01*
X1445796Y627383D01*
X1450874D01*
X1453413Y629922D01*
X1466109Y627383D02*
Y642618D01*
X1458492Y635000D01*
X1468648D01*
X1481344Y627383D02*
Y642618D01*
X1473727Y635000D01*
X1483883D01*
X1457963Y713738D02*
X1455424Y716277D01*
X1450346D01*
X1447807Y713738D01*
Y703582D01*
X1450346Y701042D01*
X1455424D01*
X1457963Y703582D01*
X1470659Y701042D02*
Y716277D01*
X1463042Y708660D01*
X1473198D01*
X1478277Y713738D02*
X1480816Y716277D01*
X1485894D01*
X1488433Y713738D01*
Y711199D01*
X1485894Y708660D01*
X1483355D01*
X1485894D01*
X1488433Y706121D01*
Y703582D01*
X1485894Y701042D01*
X1480816D01*
X1478277Y703582D01*
X1453413Y739138D02*
X1450874Y741677D01*
X1445795D01*
X1443256Y739138D01*
Y728982D01*
X1445795Y726442D01*
X1450874D01*
X1453413Y728982D01*
X1466109Y726442D02*
Y741677D01*
X1458491Y734060D01*
X1468648D01*
X1483883Y726442D02*
X1473727D01*
X1483883Y736599D01*
Y739138D01*
X1481344Y741677D01*
X1476266D01*
X1473727Y739138D01*
X1478282Y556258D02*
X1475743Y558797D01*
X1470665D01*
X1468126Y556258D01*
Y546102D01*
X1470665Y543563D01*
X1475743D01*
X1478282Y546102D01*
X1490978Y543563D02*
Y558797D01*
X1483361Y551180D01*
X1493518D01*
X1498596Y543563D02*
X1503674D01*
X1501135D01*
Y558797D01*
X1498596Y556258D01*
X1755142Y713743D02*
X1752603Y711204D01*
Y706126D01*
X1755142Y703587D01*
X1765298D01*
X1767838Y706126D01*
Y711204D01*
X1765298Y713743D01*
X1755142Y718822D02*
X1752603Y721361D01*
Y726439D01*
X1755142Y728978D01*
X1757681D01*
X1760220Y726439D01*
Y723900D01*
Y726439D01*
X1762759Y728978D01*
X1765298D01*
X1767838Y726439D01*
Y721361D01*
X1765298Y718822D01*
X1752603Y744213D02*
Y734057D01*
X1760220D01*
X1757681Y739135D01*
Y741674D01*
X1760220Y744213D01*
X1765298D01*
X1767838Y741674D01*
Y736596D01*
X1765298Y734057D01*
X1732282Y711203D02*
X1729742Y708664D01*
Y703586D01*
X1732282Y701047D01*
X1742438D01*
X1744978Y703586D01*
Y708664D01*
X1742438Y711203D01*
X1732282Y716282D02*
X1729742Y718821D01*
Y723899D01*
X1732282Y726438D01*
X1734821D01*
X1737360Y723899D01*
Y721360D01*
Y723899D01*
X1739899Y726438D01*
X1742438D01*
X1744978Y723899D01*
Y718821D01*
X1742438Y716282D01*
X1744978Y739134D02*
X1729742D01*
X1737360Y731517D01*
Y741673D01*
X1906912Y741508D02*
X1904373Y738969D01*
Y733891D01*
X1906912Y731352D01*
X1917069D01*
X1919608Y733891D01*
Y738969D01*
X1917069Y741508D01*
X1906912Y746587D02*
X1904373Y749126D01*
Y754204D01*
X1906912Y756744D01*
X1909451D01*
X1911991Y754204D01*
Y751665D01*
Y754204D01*
X1914530Y756744D01*
X1917069D01*
X1919608Y754204D01*
Y749126D01*
X1917069Y746587D01*
X1906912Y761822D02*
X1904373Y764361D01*
Y769439D01*
X1906912Y771979D01*
X1909451D01*
X1911991Y769439D01*
Y766900D01*
Y769439D01*
X1914530Y771979D01*
X1917069D01*
X1919608Y769439D01*
Y764361D01*
X1917069Y761822D01*
X1881512Y744048D02*
X1878973Y741509D01*
Y736431D01*
X1881512Y733892D01*
X1891669D01*
X1894208Y736431D01*
Y741509D01*
X1891669Y744048D01*
X1881512Y749127D02*
X1878973Y751666D01*
Y756744D01*
X1881512Y759284D01*
X1884051D01*
X1886591Y756744D01*
Y754205D01*
Y756744D01*
X1889130Y759284D01*
X1891669D01*
X1894208Y756744D01*
Y751666D01*
X1891669Y749127D01*
X1894208Y774519D02*
Y764362D01*
X1884051Y774519D01*
X1881512D01*
X1878973Y771980D01*
Y766901D01*
X1881512Y764362D01*
X1856112Y748041D02*
X1853573Y745502D01*
Y740424D01*
X1856112Y737884D01*
X1866269D01*
X1868808Y740424D01*
Y745502D01*
X1866269Y748041D01*
X1856112Y753119D02*
X1853573Y755659D01*
Y760737D01*
X1856112Y763276D01*
X1858651D01*
X1861190Y760737D01*
Y758198D01*
Y760737D01*
X1863730Y763276D01*
X1866269D01*
X1868808Y760737D01*
Y755659D01*
X1866269Y753119D01*
X1868808Y768354D02*
Y773433D01*
Y770894D01*
X1853573D01*
X1856112Y768354D01*
X1805942Y744223D02*
X1803402Y741684D01*
Y736606D01*
X1805942Y734066D01*
X1816098D01*
X1818638Y736606D01*
Y741684D01*
X1816098Y744223D01*
X1818638Y759458D02*
Y749301D01*
X1808481Y759458D01*
X1805942D01*
X1803402Y756919D01*
Y751841D01*
X1805942Y749301D01*
X1816098Y764537D02*
X1818638Y767076D01*
Y772154D01*
X1816098Y774693D01*
X1805942D01*
X1803402Y772154D01*
Y767076D01*
X1805942Y764537D01*
X1808481D01*
X1811020Y767076D01*
Y774693D01*
X2036452Y972223D02*
X2033913Y969684D01*
Y964605D01*
X2036452Y962066D01*
X2046609D01*
X2049148Y964605D01*
Y969684D01*
X2046609Y972223D01*
X2049148Y987458D02*
Y977301D01*
X2038991Y987458D01*
X2036452D01*
X2033913Y984919D01*
Y979840D01*
X2036452Y977301D01*
X2033913Y992536D02*
Y1002693D01*
X2036452D01*
X2046609Y992536D01*
X2049148D01*
X2011052Y962656D02*
X2008513Y960117D01*
Y955039D01*
X2011052Y952499D01*
X2021209D01*
X2023748Y955039D01*
Y960117D01*
X2021209Y962656D01*
X2023748Y977891D02*
Y967735D01*
X2013591Y977891D01*
X2011052D01*
X2008513Y975352D01*
Y970274D01*
X2011052Y967735D01*
X2008513Y993126D02*
X2011052Y988048D01*
X2016131Y982970D01*
X2021209D01*
X2023748Y985509D01*
Y990587D01*
X2021209Y993126D01*
X2018670D01*
X2016131Y990587D01*
Y982970D01*
X2034621Y1063734D02*
X2032082Y1061194D01*
Y1056116D01*
X2034621Y1053577D01*
X2044778D01*
X2047317Y1056116D01*
Y1061194D01*
X2044778Y1063734D01*
X2047317Y1078969D02*
Y1068812D01*
X2037160Y1078969D01*
X2034621D01*
X2032082Y1076429D01*
Y1071351D01*
X2034621Y1068812D01*
X2032082Y1094204D02*
Y1084047D01*
X2039700D01*
X2037160Y1089125D01*
Y1091664D01*
X2039700Y1094204D01*
X2044778D01*
X2047317Y1091664D01*
Y1086586D01*
X2044778Y1084047D01*
X2009221Y1056643D02*
X2006682Y1054104D01*
Y1049026D01*
X2009221Y1046487D01*
X2019378D01*
X2021917Y1049026D01*
Y1054104D01*
X2019378Y1056643D01*
X2021917Y1071878D02*
Y1061722D01*
X2011761Y1071878D01*
X2009221D01*
X2006682Y1069339D01*
Y1064261D01*
X2009221Y1061722D01*
X2021917Y1084574D02*
X2006682D01*
X2014300Y1076957D01*
Y1087113D01*
X2037001Y1160783D02*
X2034462Y1158244D01*
Y1153166D01*
X2037001Y1150627D01*
X2047158D01*
X2049697Y1153166D01*
Y1158244D01*
X2047158Y1160783D01*
X2049697Y1176018D02*
Y1165862D01*
X2039540Y1176018D01*
X2037001D01*
X2034462Y1173479D01*
Y1168401D01*
X2037001Y1165862D01*
Y1181097D02*
X2034462Y1183636D01*
Y1188714D01*
X2037001Y1191253D01*
X2039540D01*
X2042080Y1188714D01*
Y1186175D01*
Y1188714D01*
X2044619Y1191253D01*
X2047158D01*
X2049697Y1188714D01*
Y1183636D01*
X2047158Y1181097D01*
X2011601Y1150623D02*
X2009062Y1148084D01*
Y1143006D01*
X2011601Y1140467D01*
X2021758D01*
X2024297Y1143006D01*
Y1148084D01*
X2021758Y1150623D01*
X2024297Y1165858D02*
Y1155702D01*
X2014140Y1165858D01*
X2011601D01*
X2009062Y1163319D01*
Y1158241D01*
X2011601Y1155702D01*
X2024297Y1181093D02*
Y1170937D01*
X2014140Y1181093D01*
X2011601D01*
X2009062Y1178554D01*
Y1173476D01*
X2011601Y1170937D01*
X1592581Y919542D02*
X1590042Y922081D01*
X1584963D01*
X1582424Y919542D01*
Y909385D01*
X1584963Y906846D01*
X1590042D01*
X1592581Y909385D01*
X1607816Y922081D02*
X1597659D01*
Y914464D01*
X1602737Y917003D01*
X1605277D01*
X1607816Y914464D01*
Y909385D01*
X1605277Y906846D01*
X1600198D01*
X1597659Y909385D01*
X1005841Y900098D02*
X1003302Y902637D01*
X998223D01*
X995684Y900098D01*
Y889941D01*
X998223Y887402D01*
X1003302D01*
X1005841Y889941D01*
X1010919Y900098D02*
X1013458Y902637D01*
X1018537D01*
X1021076Y900098D01*
Y897559D01*
X1018537Y895020D01*
X1015997D01*
X1018537D01*
X1021076Y892481D01*
Y889941D01*
X1018537Y887402D01*
X1013458D01*
X1010919Y889941D01*
X649611Y898621D02*
X647072Y901161D01*
X641994D01*
X639455Y898621D01*
Y888465D01*
X641994Y885926D01*
X647072D01*
X649611Y888465D01*
X664846Y885926D02*
X654690D01*
X664846Y896082D01*
Y898621D01*
X662307Y901161D01*
X657229D01*
X654690Y898621D01*
X612140Y900098D02*
X609601Y902637D01*
X604523D01*
X601983Y900098D01*
Y889941D01*
X604523Y887402D01*
X609601D01*
X612140Y889941D01*
X617218Y887402D02*
X622297D01*
X619758D01*
Y902637D01*
X617218Y900098D01*
X626815Y424715D02*
Y409479D01*
X634433D01*
X636972Y412019D01*
Y414558D01*
X634433Y417097D01*
X626815D01*
X634433D01*
X636972Y419636D01*
Y422175D01*
X634433Y424715D01*
X626815D01*
X642050Y409479D02*
Y424715D01*
X649668D01*
X652207Y422175D01*
Y417097D01*
X649668Y414558D01*
X642050D01*
X647129D02*
X652207Y409479D01*
X657285D02*
X662364D01*
X659825D01*
Y424715D01*
X657285Y422175D01*
D19*
X631965Y394550D02*
X623501Y403014D01*
X631965D02*
X623501Y394550D01*
X631965Y398782D02*
X623501D01*
X627733Y403014D02*
Y394550D01*
X1439926Y652004D02*
X1431462Y660468D01*
X1439926D02*
X1431462Y652004D01*
X1439926Y656236D02*
X1431462D01*
X1435694Y660468D02*
Y652004D01*
X1039280Y391033D02*
X1030816Y382569D01*
Y391033D02*
X1039280Y382569D01*
X1035048Y391033D02*
Y382569D01*
X1030816Y386801D02*
X1039280D01*
D20*
X1782764Y641351D02*
D03*
X1625283Y877574D02*
D03*
D21*
X1406525Y868360D02*
D03*
M02*
