M48
;Layer_Color=9474304
;FILE_FORMAT=4:4
METRIC,LZ
;TYPE=PLATED
T01F00S00C0.5588
T02F00S00C0.7112
T03F00S00C0.7620
T04F00S00C0.8000
T05F00S00C1.0600
T06F00S00C1.0900
T07F00S00C1.2000
T08F00S00C1.2954
T09F00S00C1.3000
T10F00S00C1.9800
T11F00S00C2.0600
T12F00S00C2.1082
T13F00S00C9.0000
%
T01
X0103505Y0028194
Y0030734
Y0033274
Y0035814
T02
X01313815Y00315961
X0200914Y0050546
Y0055626
Y0071628
X01964436Y0073152
X0191262Y0075438
X018923
Y0070358
X018415Y006604
X0182626Y0064008
X0178308Y0060706
X016256Y0069145
X015875Y0068072
X0145796Y0059182
Y0055118
X0136906Y0073406
X0143256Y0080772
X0146558Y0091186
X01501021Y00883046
X0156464Y0091694
X018923Y008509
X0191262
T03
X0093472Y005461
X0096012
X0098552
X0106172
X0108712
X0111252
X0113792
T04
X014351Y0036616
Y0041616
T05
X00416886Y00544923
X00491886Y00504923
X00583571Y00545563
X00658571Y00505563
X00660126Y00692883
X00585126Y00732883
X00492486Y00692883
X00417486Y00732883
X0039116Y008255
X0031616Y008655
T06
X01439551Y01002763
X01541151
T07
X01656471Y00876273
Y00923573
Y00970873
Y01018173
Y01065473
Y01112773
Y01160073
X01912471Y01172823
Y01122823
X01942471Y01138823
Y01088823
X01912471Y01072823
Y01022823
Y00990823
Y00958823
Y00926823
Y00890823
X01942471Y00910823
Y00942823
Y00974823
Y01006823
Y01038823
Y01192823
X01656471Y01207373
T08
X0080264Y00320039
Y0037084
X012573Y0036576
Y0031496
Y0041656
X0080264Y0042164
X005921Y0039878
X005171
X004421
X003671
X002921
T09
X00294011Y00319503
X00344811
X00395611
X00446411
X0210058Y0045466
Y0050546
Y0055626
Y0060706
Y0066802
Y0071882
Y0076962
Y0082042
Y0087122
Y0092202
Y0097282
Y0102362
Y0108458
Y0113538
Y0118618
Y0123698
T10
X0031496Y00474418
Y00550418
X0031496Y0068346
Y0075946
X01401451Y01129763
T11
X01579251Y01155163
T12
X0044704Y0103378
Y0113378
X00812171Y01132303
Y01032303
X0117094Y0103378
Y0113378
T13
X0176447Y00871573
Y01212073
M30
