G04*
G04 #@! TF.GenerationSoftware,Altium Limited,Altium Designer,24.10.1 (45)*
G04*
G04 Layer_Physical_Order=2*
G04 Layer_Color=16711680*
%FSLAX44Y44*%
%MOMM*%
G71*
G04*
G04 #@! TF.SameCoordinates,2C042171-34E2-4856-99AA-637600A7DDE9*
G04*
G04*
G04 #@! TF.FilePolarity,Positive*
G04*
G01*
G75*
%ADD60R,1.8034X1.8034*%
%ADD61C,1.8034*%
%ADD62C,2.6162*%
%ADD63R,1.3000X1.3000*%
%ADD64C,1.3000*%
%ADD65C,1.2700*%
%ADD66C,1.0668*%
%ADD67R,1.0668X1.0668*%
%ADD68C,1.6900*%
%ADD69C,3.0300*%
%ADD70R,3.1600X3.1600*%
%ADD73C,0.8128*%
%ADD75R,1.8000X1.8000*%
%ADD76C,1.8000*%
%ADD77C,10.0160*%
%ADD78R,1.9500X1.9500*%
%ADD79C,1.9500*%
%ADD80R,2.9700X2.9700*%
%ADD81C,2.9700*%
%ADD82R,1.9500X1.9500*%
%ADD83C,1.5900*%
D60*
X592100Y398780D02*
D03*
D61*
X517100D02*
D03*
X442100D02*
D03*
X367100D02*
D03*
X292100D02*
D03*
X802640Y421640D02*
D03*
Y370840D02*
D03*
Y320039D02*
D03*
X1257300Y416560D02*
D03*
Y365760D02*
D03*
Y314960D02*
D03*
D62*
X447040Y1033780D02*
D03*
Y1133780D02*
D03*
X1170940D02*
D03*
Y1033780D02*
D03*
X812171Y1132303D02*
D03*
Y1032303D02*
D03*
D63*
X1435100Y366160D02*
D03*
D64*
Y416160D02*
D03*
D65*
X1137920Y546100D02*
D03*
X1112520D02*
D03*
X1087120D02*
D03*
X1061720D02*
D03*
X985520D02*
D03*
X960120D02*
D03*
X934720D02*
D03*
X1432560Y807720D02*
D03*
X1465580Y911860D02*
D03*
X1457960Y591820D02*
D03*
X2009140Y716280D02*
D03*
X1457960Y551180D02*
D03*
X1892300Y703580D02*
D03*
X1625600Y691450D02*
D03*
X1912620Y754380D02*
D03*
X1892300D02*
D03*
Y850900D02*
D03*
X1912620D02*
D03*
X1964436Y731520D02*
D03*
X2009140Y556260D02*
D03*
X1841500Y660400D02*
D03*
X2009140Y505460D02*
D03*
X1826260Y640080D02*
D03*
X1564640Y916940D02*
D03*
X1501021Y883046D02*
D03*
X1587500Y680720D02*
D03*
X1369060Y734060D02*
D03*
X1313815Y315961D02*
D03*
X1783080Y607060D02*
D03*
D66*
X1035050Y281940D02*
D03*
Y307340D02*
D03*
Y332740D02*
D03*
D67*
Y358140D02*
D03*
D68*
X1541151Y1002763D02*
D03*
X1439551D02*
D03*
D69*
X1401451Y1129763D02*
D03*
D70*
X1579251Y1155163D02*
D03*
D73*
X1465580Y820420D02*
Y911860D01*
X1432560Y807720D02*
X1452880D01*
X1465580Y820420D01*
X1457960Y551180D02*
Y591820D01*
X1610360Y716280D02*
X2009140D01*
X1597660Y703580D02*
X1892300D01*
X1587500Y693420D02*
X1597660Y703580D01*
X1587500Y680720D02*
Y693420D01*
X1501021Y825619D02*
X1610360Y716280D01*
X1625600Y645160D02*
Y691450D01*
X1912620Y754380D02*
Y850900D01*
X1892300Y754380D02*
Y850900D01*
X1960659Y734060D02*
X1962039Y732679D01*
X1610360Y756920D02*
X1633220Y734060D01*
X1960659D01*
X1783080Y347980D02*
Y607060D01*
X1751061Y315961D02*
X1783080Y347980D01*
X1313815Y315961D02*
X1751061D01*
X1369060Y734060D02*
X1516380D01*
X1569720Y680720D01*
X1587500D01*
X1663700Y607060D02*
X1783080D01*
X1625600Y645160D02*
X1663700Y607060D01*
X1501021Y825619D02*
Y883046D01*
X1597660Y916940D02*
X1610360Y904240D01*
X1564640Y916940D02*
X1597660D01*
X1610360Y756920D02*
Y904240D01*
X1826260Y546100D02*
Y640080D01*
Y546100D02*
X1866900Y505460D01*
X2009140D01*
X1841500Y599440D02*
X1884680Y556260D01*
X1841500Y599440D02*
Y660400D01*
X1884680Y556260D02*
X2009140D01*
D75*
X1942471Y1192823D02*
D03*
D76*
X1912471Y1172823D02*
D03*
X1942471Y1138823D02*
D03*
X1912471Y1122823D02*
D03*
X1942471Y1088823D02*
D03*
X1912471Y1072823D02*
D03*
X1942471Y1038823D02*
D03*
X1912471Y1022823D02*
D03*
X1942471Y1006823D02*
D03*
X1912471Y990823D02*
D03*
X1942471Y974823D02*
D03*
X1912471Y958823D02*
D03*
X1942471Y942823D02*
D03*
X1912471Y926823D02*
D03*
X1942471Y910823D02*
D03*
X1912471Y890823D02*
D03*
X1656471Y876273D02*
D03*
Y923573D02*
D03*
Y970873D02*
D03*
Y1018173D02*
D03*
Y1065473D02*
D03*
Y1112773D02*
D03*
Y1160073D02*
D03*
Y1207373D02*
D03*
D77*
X1764470Y1212073D02*
D03*
Y871573D02*
D03*
D78*
X2100580Y1023620D02*
D03*
Y607060D02*
D03*
Y1236980D02*
D03*
D79*
Y972820D02*
D03*
Y922020D02*
D03*
Y871220D02*
D03*
Y820420D02*
D03*
Y769620D02*
D03*
Y718820D02*
D03*
Y668020D02*
D03*
X344811Y319503D02*
D03*
X395611D02*
D03*
X446411D02*
D03*
X2100580Y556260D02*
D03*
Y505460D02*
D03*
Y454660D02*
D03*
Y1186180D02*
D03*
Y1135380D02*
D03*
Y1084580D02*
D03*
D80*
X314960Y759460D02*
D03*
X314960Y474418D02*
D03*
D81*
X314960Y683460D02*
D03*
X314960Y550418D02*
D03*
D82*
X294011Y319503D02*
D03*
D83*
X583571Y545563D02*
D03*
X658571Y505563D02*
D03*
X316160Y865500D02*
D03*
X391160Y825500D02*
D03*
X585126Y732883D02*
D03*
X660126Y692883D02*
D03*
X492486D02*
D03*
X417486Y732883D02*
D03*
X416886Y544923D02*
D03*
X491886Y504923D02*
D03*
M02*
