G04*
G04 #@! TF.GenerationSoftware,Altium Limited,Altium Designer,24.10.1 (45)*
G04*
G04 Layer_Color=8421504*
%FSLAX44Y44*%
%MOMM*%
G71*
G04*
G04 #@! TF.SameCoordinates,05503BBC-DAE6-461F-9388-7E2EE6D9866D*
G04*
G04*
G04 #@! TF.FilePolarity,Positive*
G04*
G01*
G75*
%ADD22R,1.2500X1.5500*%
%ADD23R,3.4300X1.6500*%
%ADD24R,1.2700X2.9200*%
%ADD25R,1.3562X1.0546*%
%ADD26R,2.9200X1.2700*%
%ADD27R,1.6500X3.4300*%
%ADD28R,1.1055X1.6582*%
%ADD29R,2.7000X1.2000*%
%ADD30R,0.5588X1.2192*%
%ADD31R,0.6500X0.6500*%
%ADD32R,1.6582X1.1055*%
%ADD33R,0.9500X0.9000*%
%ADD34R,0.8121X0.6587*%
%ADD35R,0.6500X0.6500*%
%ADD36R,1.9062X0.7562*%
%ADD37R,2.3300X1.9900*%
%ADD38R,2.4892X5.5880*%
%ADD39R,0.7562X1.9062*%
%ADD40R,0.9000X0.9500*%
%ADD41R,2.3022X5.4031*%
%ADD42R,2.4600X3.4200*%
%ADD43O,2.5000X0.7000*%
%ADD44R,0.8763X0.5080*%
%ADD45R,1.2565X0.4180*%
G04:AMPARAMS|DCode=46|XSize=1.2565mm|YSize=0.418mm|CornerRadius=0.209mm|HoleSize=0mm|Usage=FLASHONLY|Rotation=180.000|XOffset=0mm|YOffset=0mm|HoleType=Round|Shape=RoundedRectangle|*
%AMROUNDEDRECTD46*
21,1,1.2565,0.0000,0,0,180.0*
21,1,0.8385,0.4180,0,0,180.0*
1,1,0.4180,-0.4193,0.0000*
1,1,0.4180,0.4193,0.0000*
1,1,0.4180,0.4193,0.0000*
1,1,0.4180,-0.4193,0.0000*
%
%ADD46ROUNDEDRECTD46*%
D22*
X1752690Y850900D02*
D03*
X1732190D02*
D03*
X1732100Y911860D02*
D03*
X1752600D02*
D03*
X1732190Y881380D02*
D03*
X1752690D02*
D03*
X1732110Y942340D02*
D03*
X1752610D02*
D03*
X1732190Y820420D02*
D03*
X1752690D02*
D03*
X1732190Y789940D02*
D03*
X1752690D02*
D03*
X1216480Y815340D02*
D03*
X1236980D02*
D03*
D23*
X547997Y308464D02*
D03*
X715897D02*
D03*
D24*
X646947Y363164D02*
D03*
X676947D02*
D03*
X616947D02*
D03*
X586947D02*
D03*
D25*
X1584548Y771798D02*
D03*
Y757282D02*
D03*
X1533748Y771436D02*
D03*
Y756920D02*
D03*
X1559148Y771436D02*
D03*
Y756920D02*
D03*
X1483360Y771774D02*
D03*
Y757259D02*
D03*
X1609948Y771798D02*
D03*
Y757282D02*
D03*
X1508348Y771798D02*
D03*
Y757282D02*
D03*
D26*
X1864760Y331880D02*
D03*
Y361880D02*
D03*
Y421880D02*
D03*
Y481880D02*
D03*
Y541880D02*
D03*
Y511880D02*
D03*
Y451880D02*
D03*
Y391880D02*
D03*
D27*
X1919460Y580830D02*
D03*
Y292930D02*
D03*
D28*
X1236980Y844804D02*
D03*
X1211453Y845058D02*
D03*
X1668465Y402570D02*
D03*
X1642938D02*
D03*
X1668529Y565130D02*
D03*
X1643002D02*
D03*
X1668465Y466070D02*
D03*
X1642938D02*
D03*
X1668592Y638790D02*
D03*
X1643065D02*
D03*
X1668465Y615930D02*
D03*
X1642938D02*
D03*
D29*
X1165860Y845080D02*
D03*
Y816080D02*
D03*
D30*
X1198880Y713232D02*
D03*
X1189355Y734568D02*
D03*
X1208405D02*
D03*
D31*
X1188880Y751840D02*
D03*
X1198880D02*
D03*
X1442420Y639548D02*
D03*
X1452420D02*
D03*
D32*
X1442340Y654598D02*
D03*
Y680125D02*
D03*
X1465200Y654661D02*
D03*
Y680188D02*
D03*
X1751971Y1005303D02*
D03*
Y979776D02*
D03*
X1348740Y401320D02*
D03*
Y426847D02*
D03*
X1323340Y340297D02*
D03*
Y365824D02*
D03*
Y426847D02*
D03*
Y401320D02*
D03*
X1752680Y1127760D02*
D03*
Y1102233D02*
D03*
Y1066334D02*
D03*
Y1040807D02*
D03*
X1198880Y668020D02*
D03*
Y693547D02*
D03*
X1031240Y421767D02*
D03*
Y396240D02*
D03*
Y345313D02*
D03*
Y370840D02*
D03*
D33*
X1488042Y654451D02*
D03*
Y622951D02*
D03*
X1221740Y699010D02*
D03*
Y667510D02*
D03*
D34*
X1508362Y623461D02*
D03*
Y636996D02*
D03*
D35*
X1627825Y412570D02*
D03*
Y402570D02*
D03*
D36*
X1726571Y970803D02*
D03*
Y1005303D02*
D03*
X1727280Y1092730D02*
D03*
Y1127230D02*
D03*
Y1031770D02*
D03*
Y1066270D02*
D03*
D37*
X1234440Y461520D02*
D03*
Y401320D02*
D03*
Y309880D02*
D03*
Y370080D02*
D03*
X1285240Y309880D02*
D03*
Y370080D02*
D03*
Y461520D02*
D03*
Y401320D02*
D03*
X1389380Y366140D02*
D03*
Y426340D02*
D03*
X942340Y461520D02*
D03*
Y401320D02*
D03*
X993140Y461520D02*
D03*
Y401320D02*
D03*
X942340Y310261D02*
D03*
Y370461D02*
D03*
X993140Y310260D02*
D03*
Y370460D02*
D03*
D38*
X1442974Y759460D02*
D03*
X1361186D02*
D03*
D39*
X1633435Y590530D02*
D03*
X1667935D02*
D03*
X1633965Y491470D02*
D03*
X1668465D02*
D03*
D40*
X1236980Y868680D02*
D03*
X1205480D02*
D03*
D41*
X584200Y822960D02*
D03*
X539191D02*
D03*
X673100Y635000D02*
D03*
X628091D02*
D03*
X539191D02*
D03*
X584200D02*
D03*
X673100Y822960D02*
D03*
X628091D02*
D03*
D42*
X1216660Y779780D02*
D03*
X1168160D02*
D03*
D43*
X1410728Y641660D02*
D03*
Y654360D02*
D03*
Y667060D02*
D03*
Y679760D02*
D03*
X1361729Y641660D02*
D03*
Y654360D02*
D03*
Y667060D02*
D03*
Y679760D02*
D03*
D44*
X1668910Y525150D02*
D03*
Y534650D02*
D03*
Y544150D02*
D03*
X1642621D02*
D03*
Y534650D02*
D03*
Y525150D02*
D03*
D45*
X1668465Y426550D02*
D03*
D46*
Y433050D02*
D03*
Y439551D02*
D03*
Y446050D02*
D03*
X1627448D02*
D03*
Y439551D02*
D03*
Y433050D02*
D03*
Y426550D02*
D03*
M02*
