M48
;Layer_Color=9474304
;FILE_FORMAT=4:4
METRIC,LZ
;TYPE=PLATED
T01F00S00C0.5588
T02F00S00C0.7112
T03F00S00C0.7620
T04F00S00C0.8000
T05F00S00C1.0200
T06F00S00C1.0600
T07F00S00C1.0900
T08F00S00C1.2000
T09F00S00C1.2954
T10F00S00C1.3000
T11F00S00C1.9800
T12F00S00C2.0600
T13F00S00C2.1082
T14F00S00C9.0000
;TYPE=NON_PLATED
T15F00S00C3.0000
%
T01
X0109982Y0029464
Y0032004
Y0034544
Y0037084
T02
X0134874Y0034036
X0166878Y0037592
X016891Y0043942
X0160528Y0045212
X016256Y0054356
X0175006Y0054102
Y0051308
Y004826
X0166878Y007366
X0161036
X0153162Y0063754
X0150876Y0065532
X014097Y0061976
X0134874Y0051308
X0130048Y0073406
X0118872Y0086868
X0126238Y0081534
T03
X0094742Y0055372
X0097282
X0099822
X0107442
X0109982
X0112522
X0115062
T04
X014732Y0037632
Y0042632
T05
X0183962Y0077584
X0186962Y0077584
Y0080584
Y0083584
Y0086584
Y0089584
Y0092584
X0183962
Y0089584
Y0086584
Y0083584
Y0080584
T06
X00402083Y005606
X00477083Y005206
X0047752Y0064516
X0040252Y0068516
X0047752Y0076962
X0056762Y0074866
X0064262Y0070866
X00643331Y00520803
X00568331Y00560803
X0040252Y0080962
T07
X01074957Y00667391
Y00768991
T08
X01361831Y00848333
Y00895633
Y00942933
Y00990233
Y01037533
Y01084833
Y01132133
Y01179433
X01617831Y01144883
Y01094883
X01647831Y01110883
Y01060883
X01617831Y01044883
Y00994883
Y00962883
Y00930883
Y00898883
Y00862883
X01647831Y00882883
Y00914883
Y00946883
Y00978883
Y01010883
Y01164883
T09
X0076708Y003048
X0081788
X0086868
X0068728Y0042926
X0061228
X0053728
X0046228
X0038728
T10
X0030226Y0028702
Y0033782
Y0038862
Y0043942
X0170434Y011811
X0175514
X0180594
X0185674
T11
X00947957Y00629291
X0030988Y0057892
Y0050292
Y00783028
Y00859028
T12
X00922557Y00807091
T13
X0043942Y0101346
Y0111346
X00804551Y01111983
Y01011983
X0116332Y0101346
Y0111346
T14
X0146983Y00843633
Y01184133
T15
X0191262Y0079744
Y0090424
M30
