G04*
G04 #@! TF.GenerationSoftware,Altium Limited,Altium Designer,24.10.1 (45)*
G04*
G04 Layer_Physical_Order=2*
G04 Layer_Color=16711680*
%FSLAX44Y44*%
%MOMM*%
G71*
G04*
G04 #@! TF.SameCoordinates,05503BBC-DAE6-461F-9388-7E2EE6D9866D*
G04*
G04*
G04 #@! TF.FilePolarity,Positive*
G04*
G01*
G75*
%ADD59R,1.8034X1.8034*%
%ADD60C,1.8034*%
%ADD64C,1.6900*%
%ADD65C,3.0300*%
%ADD66R,3.1600X3.1600*%
%ADD67C,2.6162*%
%ADD70C,1.2700*%
%ADD71C,1.0668*%
%ADD72R,1.0668X1.0668*%
%ADD79C,1.3000*%
%ADD80R,1.3000X1.3000*%
%ADD82C,0.4064*%
%ADD83C,0.8128*%
%ADD84C,3.0000*%
%ADD85C,1.5200*%
G04:AMPARAMS|DCode=86|XSize=1.52mm|YSize=1.52mm|CornerRadius=0.38mm|HoleSize=0mm|Usage=FLASHONLY|Rotation=90.000|XOffset=0mm|YOffset=0mm|HoleType=Round|Shape=RoundedRectangle|*
%AMROUNDEDRECTD86*
21,1,1.5200,0.7600,0,0,90.0*
21,1,0.7600,1.5200,0,0,90.0*
1,1,0.7600,0.3800,0.3800*
1,1,0.7600,0.3800,-0.3800*
1,1,0.7600,-0.3800,-0.3800*
1,1,0.7600,-0.3800,0.3800*
%
%ADD86ROUNDEDRECTD86*%
%ADD87C,10.0160*%
%ADD88C,1.8000*%
%ADD89R,1.8000X1.8000*%
%ADD90R,1.9500X1.9500*%
%ADD91C,1.9500*%
%ADD92R,1.9500X1.9500*%
%ADD93C,2.9700*%
%ADD94R,2.9700X2.9700*%
%ADD95C,1.5900*%
D59*
X687280Y429260D02*
D03*
D60*
X612280D02*
D03*
X537280D02*
D03*
X462280D02*
D03*
X387280D02*
D03*
X767080Y304800D02*
D03*
X817880D02*
D03*
X868680D02*
D03*
D64*
X1074957Y768991D02*
D03*
Y667391D02*
D03*
D65*
X947957Y629291D02*
D03*
D66*
X922557Y807091D02*
D03*
D67*
X1163320Y1013460D02*
D03*
Y1113460D02*
D03*
X439420D02*
D03*
Y1013460D02*
D03*
X804551Y1111983D02*
D03*
Y1011983D02*
D03*
D70*
X1150620Y553720D02*
D03*
X1125220D02*
D03*
X1099820D02*
D03*
X1074420D02*
D03*
X998220D02*
D03*
X972820D02*
D03*
X947420D02*
D03*
X1300480Y734060D02*
D03*
X1262380Y815340D02*
D03*
X1605280Y452120D02*
D03*
X1625600Y543560D02*
D03*
X1610360Y736600D02*
D03*
X1668780D02*
D03*
X1689100Y439420D02*
D03*
X1508760Y655320D02*
D03*
X1531620Y637540D02*
D03*
X1750060Y482600D02*
D03*
Y513080D02*
D03*
Y541020D02*
D03*
X1668780Y375920D02*
D03*
X1348740Y513080D02*
D03*
X1409700Y619760D02*
D03*
X1188720Y868680D02*
D03*
X1348740Y340360D02*
D03*
D71*
X1099820Y294640D02*
D03*
Y320040D02*
D03*
Y345440D02*
D03*
D72*
Y370840D02*
D03*
D79*
X1473200Y426320D02*
D03*
D80*
Y376320D02*
D03*
D82*
X1605280Y452120D02*
Y537831D01*
X1611009Y543560D01*
X1625600D01*
D83*
X1473200Y375920D02*
X1668780Y375920D01*
X1267460Y868680D02*
X1282700Y853440D01*
Y711200D02*
X1303190Y690710D01*
X1282700Y711200D02*
Y853440D01*
X1303190Y690710D02*
X1772750D01*
X1300480Y723263D02*
X1305241Y718501D01*
X1310321Y713740D02*
X1755140D01*
X1300480Y723263D02*
Y734060D01*
X1305560Y718501D02*
X1310321Y713740D01*
X1305241Y718501D02*
X1305560D01*
X1780540Y739140D02*
Y889000D01*
X1755140Y713740D02*
X1780540Y739140D01*
X1772750Y690710D02*
X1803400Y721360D01*
X1780540Y889000D02*
X1817380Y925840D01*
X1803400Y721360D02*
Y878840D01*
X1820400Y895840D01*
X1839620D01*
X1817380Y925840D02*
X1839620D01*
X1188720Y868680D02*
X1267460D01*
X1262380Y698500D02*
Y815340D01*
Y698500D02*
X1288796Y672084D01*
X1583910D02*
X1714974Y541020D01*
X1288796Y672084D02*
X1583910D01*
X1576749Y655320D02*
X1718989Y513080D01*
X1508760Y655320D02*
X1576749D01*
X1714974Y541020D02*
X1750060D01*
X1720940Y764268D02*
Y920840D01*
X1693272Y736600D02*
X1720940Y764268D01*
X1668780Y736600D02*
X1693272D01*
X1720940Y920840D02*
X1856740Y1056640D01*
Y1181100D01*
X661589Y395051D02*
Y532211D01*
X642620Y551180D02*
Y708164D01*
Y551180D02*
X661589Y532211D01*
Y395051D02*
X685800Y370840D01*
X637540Y355600D02*
X795020D01*
X817880Y332740D01*
X612280Y380860D02*
X637540Y355600D01*
X612280Y380860D02*
Y429260D01*
X767080Y304800D02*
Y320040D01*
X553720Y337820D02*
X749300D01*
X767080Y320040D01*
X537280Y354260D02*
X553720Y337820D01*
X537280Y354260D02*
Y429260D01*
X817880Y304800D02*
Y332740D01*
X685800Y370840D02*
X845916D01*
X868680Y304800D02*
Y348076D01*
X845916Y370840D02*
X868680Y348076D01*
X830580Y670560D02*
Y1041400D01*
Y670560D02*
X871849Y629291D01*
X804551Y1067429D02*
X830580Y1041400D01*
X871849Y629291D02*
X947957D01*
X804551Y1067429D02*
Y1111983D01*
X1592580Y439420D02*
X1689100D01*
X1414526Y617474D02*
X1592580Y439420D01*
X1410937Y619760D02*
X1413223Y617474D01*
X1409700Y619760D02*
X1410937D01*
X1413223Y617474D02*
X1414526D01*
X1567180Y637540D02*
X1722120Y482600D01*
X1750060D01*
X1531620Y637540D02*
X1567180D01*
X1718989Y513080D02*
X1750060D01*
X1610360Y736600D02*
X1668780D01*
X1132840Y629920D02*
Y853666D01*
X1249680Y513080D02*
X1348740D01*
X1132840Y629920D02*
X1249680Y513080D01*
X1147854Y868680D02*
X1188720D01*
X1132840Y853666D02*
X1147854Y868680D01*
X1348740Y340360D02*
Y513080D01*
D84*
X1912620Y904240D02*
D03*
Y797440D02*
D03*
D85*
X1869620Y865840D02*
D03*
Y895840D02*
D03*
Y835840D02*
D03*
Y805840D02*
D03*
Y775840D02*
D03*
X1839620Y925840D02*
D03*
Y895840D02*
D03*
Y865840D02*
D03*
Y835840D02*
D03*
Y805840D02*
D03*
Y775840D02*
D03*
D86*
X1869620Y925840D02*
D03*
D87*
X1469830Y843633D02*
D03*
Y1184133D02*
D03*
D88*
X1361831Y1179433D02*
D03*
Y1132133D02*
D03*
Y1084833D02*
D03*
Y1037533D02*
D03*
Y990233D02*
D03*
Y942933D02*
D03*
Y895633D02*
D03*
Y848333D02*
D03*
X1617831Y862883D02*
D03*
X1647831Y882883D02*
D03*
X1617831Y898883D02*
D03*
X1647831Y914883D02*
D03*
X1617831Y930883D02*
D03*
X1647831Y946883D02*
D03*
X1617831Y962883D02*
D03*
X1647831Y978883D02*
D03*
X1617831Y994883D02*
D03*
X1647831Y1010883D02*
D03*
X1617831Y1044883D02*
D03*
X1647831Y1060883D02*
D03*
X1617831Y1094883D02*
D03*
X1647831Y1110883D02*
D03*
X1617831Y1144883D02*
D03*
D89*
X1647831Y1164883D02*
D03*
D90*
X302260Y439420D02*
D03*
D91*
Y388620D02*
D03*
Y337820D02*
D03*
Y287020D02*
D03*
X1856740Y1181100D02*
D03*
X1805940D02*
D03*
X1755140D02*
D03*
D92*
X1704340D02*
D03*
D93*
X309880Y578920D02*
D03*
Y783028D02*
D03*
D94*
Y502920D02*
D03*
Y859028D02*
D03*
D95*
X477520Y769620D02*
D03*
X402520Y809620D02*
D03*
Y685160D02*
D03*
X477520Y645160D02*
D03*
X568331Y560803D02*
D03*
X643331Y520803D02*
D03*
X402083Y560600D02*
D03*
X477083Y520600D02*
D03*
X642620Y708660D02*
D03*
X567620Y748660D02*
D03*
M02*
