G04*
G04 #@! TF.GenerationSoftware,Altium Limited,Altium Designer,24.8.2 (39)*
G04*
G04 Layer_Color=8421504*
%FSLAX44Y44*%
%MOMM*%
G71*
G04*
G04 #@! TF.SameCoordinates,4885581F-0604-4F09-9491-639391A0AD0E*
G04*
G04*
G04 #@! TF.FilePolarity,Positive*
G04*
G01*
G75*
%ADD17R,0.2794X1.3589*%
%ADD18R,1.3589X0.2794*%
%ADD19R,1.0549X1.0062*%
%ADD20R,1.3500X1.4500*%
%ADD21R,0.4000X0.5000*%
%ADD22R,0.7581X0.8121*%
%ADD23R,2.0000X3.0000*%
%ADD24R,1.6000X5.7000*%
G04:AMPARAMS|DCode=25|XSize=6.4mm|YSize=8.2mm|CornerRadius=0.064mm|HoleSize=0mm|Usage=FLASHONLY|Rotation=90.000|XOffset=0mm|YOffset=0mm|HoleType=Round|Shape=RoundedRectangle|*
%AMROUNDEDRECTD25*
21,1,6.4000,8.0720,0,0,90.0*
21,1,6.2720,8.2000,0,0,90.0*
1,1,0.1280,4.0360,3.1360*
1,1,0.1280,4.0360,-3.1360*
1,1,0.1280,-4.0360,-3.1360*
1,1,0.1280,-4.0360,3.1360*
%
%ADD25ROUNDEDRECTD25*%
G04:AMPARAMS|DCode=26|XSize=1mm|YSize=4.15mm|CornerRadius=0.05mm|HoleSize=0mm|Usage=FLASHONLY|Rotation=90.000|XOffset=0mm|YOffset=0mm|HoleType=Round|Shape=RoundedRectangle|*
%AMROUNDEDRECTD26*
21,1,1.0000,4.0500,0,0,90.0*
21,1,0.9000,4.1500,0,0,90.0*
1,1,0.1000,2.0250,0.4500*
1,1,0.1000,2.0250,-0.4500*
1,1,0.1000,-2.0250,-0.4500*
1,1,0.1000,-2.0250,0.4500*
%
%ADD26ROUNDEDRECTD26*%
%ADD27R,1.6002X2.2098*%
%ADD28R,0.7500X0.8500*%
%ADD29R,0.7000X0.8500*%
%ADD30R,0.8000X0.8000*%
%ADD31R,1.0000X0.9000*%
%ADD32R,0.8549X0.9062*%
%ADD33R,1.9000X2.3000*%
%ADD34R,1.0668X0.6096*%
%ADD35R,1.5500X1.3000*%
%ADD36R,0.8000X0.9000*%
D17*
X1010410Y1284668D02*
D03*
X1015410D02*
D03*
X1020410D02*
D03*
X1025410D02*
D03*
X1030410D02*
D03*
X1035410D02*
D03*
X1040410D02*
D03*
X1045410D02*
D03*
X1050410D02*
D03*
X1055410D02*
D03*
X1060410D02*
D03*
X1065410D02*
D03*
X1070410D02*
D03*
X1075410D02*
D03*
X1080410D02*
D03*
X1085410D02*
D03*
X1090410D02*
D03*
X1095410D02*
D03*
X1100410D02*
D03*
X1105410D02*
D03*
Y1151191D02*
D03*
X1100410D02*
D03*
X1095410D02*
D03*
X1090410D02*
D03*
X1085410D02*
D03*
X1080410D02*
D03*
X1075410D02*
D03*
X1070410D02*
D03*
X1065410D02*
D03*
X1060410D02*
D03*
X1055410D02*
D03*
X1050410D02*
D03*
X1045410D02*
D03*
X1040410D02*
D03*
X1035410D02*
D03*
X1030410D02*
D03*
X1025410D02*
D03*
X1020410D02*
D03*
X1015410D02*
D03*
X1010410D02*
D03*
D18*
X1124649Y1265430D02*
D03*
Y1260430D02*
D03*
Y1255430D02*
D03*
Y1250430D02*
D03*
Y1245430D02*
D03*
Y1240430D02*
D03*
Y1235430D02*
D03*
Y1230430D02*
D03*
Y1225430D02*
D03*
Y1220430D02*
D03*
Y1215430D02*
D03*
Y1210430D02*
D03*
Y1205430D02*
D03*
Y1200430D02*
D03*
Y1195430D02*
D03*
Y1190430D02*
D03*
Y1185430D02*
D03*
Y1180430D02*
D03*
Y1175430D02*
D03*
Y1170430D02*
D03*
X991171D02*
D03*
Y1175430D02*
D03*
Y1180430D02*
D03*
Y1185430D02*
D03*
Y1190430D02*
D03*
Y1195430D02*
D03*
Y1200430D02*
D03*
Y1205430D02*
D03*
Y1210430D02*
D03*
Y1215430D02*
D03*
Y1220430D02*
D03*
Y1225430D02*
D03*
Y1230430D02*
D03*
Y1235430D02*
D03*
Y1240430D02*
D03*
Y1245430D02*
D03*
Y1250430D02*
D03*
Y1255430D02*
D03*
Y1260430D02*
D03*
Y1265430D02*
D03*
D19*
X772524Y1242060D02*
D03*
X787036D02*
D03*
X772524Y1169670D02*
D03*
X787037D02*
D03*
X772524Y1355090D02*
D03*
X787037D02*
D03*
X772524Y1316990D02*
D03*
X787036D02*
D03*
X772524Y1280160D02*
D03*
X787037D02*
D03*
X772160Y1205230D02*
D03*
X786673D02*
D03*
X1692546Y1005840D02*
D03*
X1678034D02*
D03*
D20*
X1352550Y1410970D02*
D03*
X1369050D02*
D03*
X902970Y1841500D02*
D03*
X919470D02*
D03*
X1812930Y1593850D02*
D03*
X1829430D02*
D03*
D21*
X844930Y1322070D02*
D03*
X836930D02*
D03*
X844740Y1188720D02*
D03*
X836740D02*
D03*
X844930Y1250950D02*
D03*
X836930D02*
D03*
X1569910Y1017270D02*
D03*
X1561910D02*
D03*
X1199960Y1329690D02*
D03*
X1207960D02*
D03*
D22*
X838280Y1353820D02*
D03*
X850820D02*
D03*
D23*
X893290Y1791970D02*
D03*
X953290D02*
D03*
X1791180Y1677670D02*
D03*
X1851180D02*
D03*
X1330170Y1484630D02*
D03*
X1390170D02*
D03*
D24*
X1704980Y1634490D02*
D03*
X1657980D02*
D03*
D25*
X1625600Y1497330D02*
D03*
D26*
X1521100Y1463330D02*
D03*
Y1480330D02*
D03*
Y1497330D02*
D03*
Y1514330D02*
D03*
Y1531330D02*
D03*
D27*
X1331341Y1805940D02*
D03*
X1371219D02*
D03*
D28*
X836780Y1220470D02*
D03*
X849780D02*
D03*
X1201120Y1297940D02*
D03*
X1214120D02*
D03*
X942340Y1355090D02*
D03*
X955340D02*
D03*
D29*
X835760Y1281430D02*
D03*
X848260D02*
D03*
X1202790Y1268730D02*
D03*
X1215290D02*
D03*
D30*
X854590Y1090930D02*
D03*
X839590D02*
D03*
X854590Y1130300D02*
D03*
X839590D02*
D03*
D31*
X788780Y1090930D02*
D03*
X770780D02*
D03*
X788780Y1130300D02*
D03*
X770780D02*
D03*
D32*
X1575977Y1055370D02*
D03*
X1563463D02*
D03*
D33*
X1504000Y999490D02*
D03*
X1417000D02*
D03*
D34*
X1695958Y1060100D02*
D03*
Y1048100D02*
D03*
X1674622D02*
D03*
Y1060100D02*
D03*
D35*
X1201040Y1217570D02*
D03*
Y1172570D02*
D03*
X1280540Y1217570D02*
D03*
Y1172570D02*
D03*
X839090Y1453790D02*
D03*
Y1408790D02*
D03*
X918590Y1453790D02*
D03*
Y1408790D02*
D03*
D36*
X919360Y1355090D02*
D03*
X904360D02*
D03*
M02*
