G04*
G04 #@! TF.GenerationSoftware,Altium Limited,Altium Designer,24.8.2 (39)*
G04*
G04 Layer_Color=16711935*
%FSLAX44Y44*%
%MOMM*%
G71*
G04*
G04 #@! TF.SameCoordinates,4885581F-0604-4F09-9491-639391A0AD0E*
G04*
G04*
G04 #@! TF.FilePolarity,Negative*
G04*
G01*
G75*
%ADD44C,1.8034*%
%ADD45R,1.5700X1.5700*%
%ADD46C,1.5700*%
%ADD47C,1.5500*%
%ADD48R,1.5500X1.5500*%
%ADD49C,1.2000*%
%ADD50R,1.2000X1.2000*%
%ADD51R,1.5500X1.5500*%
%ADD52C,2.2000*%
%ADD53R,2.2000X2.2000*%
%ADD54R,1.9032X1.9032*%
%ADD55C,1.9032*%
%ADD56C,1.2192*%
%ADD57C,1.4732*%
D44*
X297180Y1578610D02*
D03*
Y1786610D02*
D03*
X747180Y1658610D02*
D03*
Y1578610D02*
D03*
X113030Y1779270D02*
D03*
Y1728470D02*
D03*
Y1677670D02*
D03*
D45*
X111760Y1490980D02*
D03*
X2016760Y1791970D02*
D03*
D46*
X111760Y1465580D02*
D03*
Y1440180D02*
D03*
Y1414780D02*
D03*
Y1389380D02*
D03*
Y1363980D02*
D03*
Y1338580D02*
D03*
Y1313180D02*
D03*
Y1287780D02*
D03*
Y1262380D02*
D03*
X137160Y1490980D02*
D03*
Y1465580D02*
D03*
Y1440180D02*
D03*
Y1414780D02*
D03*
Y1389380D02*
D03*
Y1363980D02*
D03*
Y1338580D02*
D03*
Y1313180D02*
D03*
Y1287780D02*
D03*
Y1262380D02*
D03*
X2042160Y1563370D02*
D03*
Y1588770D02*
D03*
Y1614170D02*
D03*
Y1639570D02*
D03*
Y1664970D02*
D03*
Y1690370D02*
D03*
Y1715770D02*
D03*
Y1741170D02*
D03*
Y1766570D02*
D03*
Y1791970D02*
D03*
X2016760Y1563370D02*
D03*
Y1588770D02*
D03*
Y1614170D02*
D03*
Y1639570D02*
D03*
Y1664970D02*
D03*
Y1690370D02*
D03*
Y1715770D02*
D03*
Y1741170D02*
D03*
Y1766570D02*
D03*
D47*
X899560Y1699260D02*
D03*
X114300Y1104900D02*
D03*
Y1079500D02*
D03*
X900830Y1581150D02*
D03*
X1792370Y1794510D02*
D03*
X1330490Y1586230D02*
D03*
X1327550Y1706880D02*
D03*
D48*
X949560Y1699260D02*
D03*
X950830Y1581150D02*
D03*
X1842370Y1794510D02*
D03*
X1380490Y1586230D02*
D03*
X1377550Y1706880D02*
D03*
D49*
X111760Y964880D02*
D03*
Y944880D02*
D03*
Y924880D02*
D03*
Y904880D02*
D03*
D50*
Y884880D02*
D03*
D51*
X114300Y1054100D02*
D03*
D52*
X1525270Y1825550D02*
D03*
D53*
Y1616150D02*
D03*
D54*
X1485500Y1069490D02*
D03*
D55*
X1435500D02*
D03*
X1460500D02*
D03*
D56*
X1826260Y1624330D02*
D03*
X864870Y1850390D02*
D03*
X2037080Y1141730D02*
D03*
X2043430Y1184910D02*
D03*
X736600Y1677670D02*
D03*
X948690Y1153160D02*
D03*
X1105154Y1381506D02*
D03*
X1080770Y1254760D02*
D03*
X1065410Y1309878D02*
D03*
X187960Y1314450D02*
D03*
X772524Y1525668D02*
D03*
X882650Y1687830D02*
D03*
X862076Y1641602D02*
D03*
X815086Y1129284D02*
D03*
X1005586Y1318768D02*
D03*
X1026160Y1264920D02*
D03*
X1085850Y1316990D02*
D03*
X1073150Y1329010D02*
D03*
X1134110Y1299210D02*
D03*
X1082040Y1240790D02*
D03*
X218440Y1281430D02*
D03*
X1155954Y1384554D02*
D03*
X1198880Y1254252D02*
D03*
X1080770Y1203960D02*
D03*
X717042Y1502410D02*
D03*
X769620Y1106424D02*
D03*
X1109472Y1119124D02*
D03*
X724662Y1490980D02*
D03*
X370586Y1232154D02*
D03*
X1021080Y1241298D02*
D03*
X889254Y1341882D02*
D03*
X982980Y1139190D02*
D03*
X2030730Y1154430D02*
D03*
X2014220Y1183386D02*
D03*
X948690Y1184910D02*
D03*
X941070Y1172210D02*
D03*
X2014220Y1163320D02*
D03*
X1692546Y1025254D02*
D03*
X1118362Y1093978D02*
D03*
X1144270Y1240790D02*
D03*
X1103884Y1255776D02*
D03*
X964946Y1241552D02*
D03*
X756920Y1264920D02*
D03*
X972820Y1272540D02*
D03*
X778510Y1259840D02*
D03*
X977900Y1291590D02*
D03*
X806450Y1289050D02*
D03*
X1005840Y1202690D02*
D03*
X803910Y1174750D02*
D03*
X792370Y1261872D02*
D03*
X961390Y1289050D02*
D03*
X812292Y1270762D02*
D03*
X949960Y1276350D02*
D03*
X812800Y1353566D02*
D03*
X1485500Y1297940D02*
D03*
X1234694D02*
D03*
X825500Y1378966D02*
D03*
X951230D02*
D03*
X111760Y1200150D02*
D03*
X971550Y1182370D02*
D03*
X1171553Y1189736D02*
D03*
X1043940Y1266190D02*
D03*
X1009650Y1129030D02*
D03*
X1013460Y1258570D02*
D03*
X1564386Y1263396D02*
D03*
X410718Y1389380D02*
D03*
X1408430Y1527810D02*
D03*
D57*
X1468120Y1398270D02*
D03*
X1530350Y1027430D02*
D03*
X965200Y1087120D02*
D03*
M02*
