M48
;Layer_Color=9474304
;FILE_FORMAT=4:4
METRIC,LZ
;TYPE=PLATED
T01F00S00C0.3810
T02F00S00C0.5080
T03F00S00C0.7000
T04F00S00C1.0000
T05F00S00C1.0200
T06F00S00C1.2000
T07F00S00C1.2954
T08F00S00C1.4500
%
T01
X0011176Y0120015
T02
X0076962Y01106424
X00815086Y01129284
X0080391Y0117475
X0094107Y0117221
X0094869Y0118491
X0097155Y0118237
X00948944Y01157478
X0098298Y0113919
X0100965Y0112903
X01109472Y01119124
X01118362Y01093978
X01171553Y01189736
X01692546Y01025254
X01939036Y01189736
X01998726Y01181608
X0201422Y01183386
Y0116332
X0203073Y0115443
X0203708Y0114173
X02057908Y01131316
X02006346Y0136525
X01564386Y01263396
X014855Y0129794
X01234694
X0119888Y01254252
X0140843Y0152781
X01155954Y01384554
X01105154Y01381506
X0108585Y0131699
X0107315Y0132901
X0106541Y01309878
X0104394Y0126619
X0102616Y0126492
X0101346Y0125857
X0102108Y01241298
X0100584Y0120269
X0108077Y0120396
X0108204Y0124079
X0108077Y0125476
X01103884Y01255776
X0114427Y0124079
X0113411Y0129921
X01005586Y01318768
X009779Y0129159
X0096139Y0128905
X0094996Y0127635
X0097282Y0127254
X00964946Y01241552
X0095123Y01378966
X00889254Y01341882
X008128Y01353566
X008255Y01378966
X0080645Y0128905
X00812292Y01270762
X0079237Y01261872
X0077851Y0125984
X0075692Y0126492
X00724662Y0149098
X00717042Y0150241
X00772524Y01525668
X00410718Y0138938
X00370586Y01232154
X0021844Y0128143
X0018796Y0131445
X007366Y0167767
X0088265Y0168783
X00862076Y01641602
X00870966Y0185928
X0184237Y0161417
T03
X0011176Y0088488
Y0090488
Y0092488
Y0094488
Y0096488
T04
X001143Y010541
Y010795
Y011049
X0133049Y0158623
X0138049
X0095083Y0158115
X0090083
X0089956Y0169926
X0094956
X0132755Y0170688
X0137755
X0179237Y0179451
X0184237
T05
X0201676Y0156337
X0204216
X0013716Y0149098
X0011176
Y0146558
Y0144018
Y0141478
Y0138938
Y0136398
Y0133858
Y0131318
Y0128778
Y0126238
X0013716
Y0128778
Y0131318
Y0133858
Y0136398
Y0138938
Y0141478
Y0144018
Y0146558
X0201676Y0158877
X0204216
Y0161417
Y0163957
Y0166497
Y0169037
Y0171577
Y0174117
Y0176657
Y0179197
X0201676
Y0176657
Y0174117
Y0171577
Y0169037
Y0166497
Y0163957
Y0161417
T06
X014355Y0106949
X014605
X014855
T07
X0074718Y0157861
X0029718
Y0178661
X0011303Y0177927
Y0172847
Y0167767
X0074718Y0165861
T08
X0152527Y0161615
Y0182555
M30
