G04*
G04 #@! TF.GenerationSoftware,Altium Limited,Altium Designer,24.8.2 (39)*
G04*
G04 Layer_Physical_Order=2*
G04 Layer_Color=16711680*
%FSLAX44Y44*%
%MOMM*%
G71*
G04*
G04 #@! TF.SameCoordinates,10B77030-9BE5-4BC5-9E5E-3B2CA86DC2A3*
G04*
G04*
G04 #@! TF.FilePolarity,Positive*
G04*
G01*
G75*
%ADD44C,1.8034*%
%ADD45R,1.5700X1.5700*%
%ADD46C,1.5700*%
%ADD47C,1.5500*%
%ADD48R,1.5500X1.5500*%
%ADD49C,1.2000*%
%ADD50R,1.2000X1.2000*%
%ADD51R,1.5500X1.5500*%
%ADD52C,2.2000*%
%ADD53R,2.2000X2.2000*%
%ADD57C,0.3810*%
%ADD60C,0.2540*%
%ADD61C,0.8128*%
%ADD62R,1.7000X1.7000*%
%ADD63C,1.7000*%
%ADD64C,1.0160*%
%ADD65C,0.8890*%
D44*
X297180Y1578610D02*
D03*
Y1786610D02*
D03*
X747180Y1658610D02*
D03*
Y1578610D02*
D03*
X113030Y1779270D02*
D03*
Y1728470D02*
D03*
Y1677670D02*
D03*
D45*
X111760Y1490980D02*
D03*
X2016760Y1791970D02*
D03*
D46*
X111760Y1465580D02*
D03*
Y1440180D02*
D03*
Y1414780D02*
D03*
Y1389380D02*
D03*
Y1363980D02*
D03*
Y1338580D02*
D03*
Y1313180D02*
D03*
Y1287780D02*
D03*
Y1262380D02*
D03*
X137160Y1490980D02*
D03*
Y1465580D02*
D03*
Y1440180D02*
D03*
Y1414780D02*
D03*
Y1389380D02*
D03*
Y1363980D02*
D03*
Y1338580D02*
D03*
Y1313180D02*
D03*
Y1287780D02*
D03*
Y1262380D02*
D03*
X2042160Y1563370D02*
D03*
Y1588770D02*
D03*
Y1614170D02*
D03*
Y1639570D02*
D03*
Y1664970D02*
D03*
Y1690370D02*
D03*
Y1715770D02*
D03*
Y1741170D02*
D03*
Y1766570D02*
D03*
Y1791970D02*
D03*
X2016760Y1563370D02*
D03*
Y1588770D02*
D03*
Y1614170D02*
D03*
Y1639570D02*
D03*
Y1664970D02*
D03*
Y1690370D02*
D03*
Y1715770D02*
D03*
Y1741170D02*
D03*
Y1766570D02*
D03*
D47*
X899560Y1699260D02*
D03*
X114300Y1104900D02*
D03*
Y1079500D02*
D03*
X900830Y1581150D02*
D03*
X1792370Y1794510D02*
D03*
X1330490Y1586230D02*
D03*
X1327550Y1706880D02*
D03*
D48*
X949560Y1699260D02*
D03*
X950830Y1581150D02*
D03*
X1842370Y1794510D02*
D03*
X1380490Y1586230D02*
D03*
X1377550Y1706880D02*
D03*
D49*
X111760Y964880D02*
D03*
Y944880D02*
D03*
Y924880D02*
D03*
Y904880D02*
D03*
D50*
Y884880D02*
D03*
D51*
X114300Y1054100D02*
D03*
D52*
X1525270Y1825550D02*
D03*
D53*
Y1616150D02*
D03*
D57*
X1082488Y1254760D02*
X1084828Y1257100D01*
X1092200D01*
X1080770Y1254760D02*
X1082488D01*
X1092200Y1257100D02*
X1095248Y1254052D01*
X1140397Y1232315D02*
X1142740Y1234658D01*
X1064575Y1309878D02*
X1065410D01*
X1060003Y1314450D02*
X1064575Y1309878D01*
X1012942Y1314450D02*
X1060003D01*
X648653Y1310513D02*
X1009005D01*
X644716Y1314450D02*
X648653Y1310513D01*
X1009005D02*
X1012942Y1314450D01*
X187960D02*
X644716D01*
X111760Y1200150D02*
Y1246788D01*
X111354Y1415186D02*
X126135Y1400405D01*
Y1384813D02*
Y1400405D01*
X134268Y1376680D02*
X821496D01*
X126135Y1384813D02*
X134268Y1376680D01*
X821496D02*
X823782Y1378966D01*
X825500D01*
X109528Y1400405D02*
X111760Y1402637D01*
Y1414780D01*
Y1246788D02*
X122785Y1257813D01*
Y1266947D01*
X114652Y1275080D02*
X122785Y1266947D01*
X108868Y1275080D02*
X114652D01*
X100735Y1393947D02*
X107193Y1400405D01*
X100735Y1363553D02*
Y1393947D01*
X93115Y1316234D02*
Y1355933D01*
X100735Y1283213D02*
Y1308613D01*
X107193Y1400405D02*
X109528D01*
X93115Y1355933D02*
X100735Y1363553D01*
X93115Y1316234D02*
X100735Y1308613D01*
Y1283213D02*
X108868Y1275080D01*
X924560Y1193800D02*
X1102106D01*
X892810Y1162050D02*
X924560Y1193800D01*
X1102106D02*
X1140397Y1232091D01*
X555630Y904880D02*
X805180Y1154430D01*
X947226Y1157478D02*
X948944D01*
X944178Y1154430D02*
X947226Y1157478D01*
X805180Y1154430D02*
X944178D01*
X111760Y904880D02*
X555630D01*
X100330Y933450D02*
X111760Y944880D01*
X100330Y921258D02*
Y933450D01*
Y921258D02*
X106680Y914908D01*
X1091946Y1219200D02*
X1103884Y1231138D01*
X826516Y1219200D02*
X1091946D01*
X717296Y1109980D02*
X826516Y1219200D01*
X1140397Y1232091D02*
Y1232315D01*
X825500Y1378966D02*
X951230D01*
X1118362Y1093978D02*
X1623822D01*
X1692546Y1025254D01*
X106680Y914908D02*
X137414D01*
X283718Y1061212D01*
X697738D01*
X798576Y1162050D01*
X892810D01*
X1234694Y1297940D02*
X1485500D01*
X114300Y1079500D02*
X162052Y1127252D01*
X571246D01*
X670560Y1226566D01*
X1087374D01*
X1095248Y1234440D01*
Y1254052D01*
X1103884Y1231138D02*
Y1255776D01*
X296860Y1109980D02*
X717296D01*
X111760Y924880D02*
X296860Y1109980D01*
D60*
X121805Y1366635D02*
G03*
X114415Y1374025I-10045J-2655D01*
G01*
X127115Y1361325D02*
G03*
X132712Y1354590I10045J2655D01*
G01*
X1142740Y1235492D02*
X1142812Y1235564D01*
Y1239332D02*
X1144270Y1240790D01*
X1142812Y1235564D02*
Y1239332D01*
X1142740Y1234658D02*
Y1235492D01*
X817880Y1276350D02*
X949960D01*
X812292Y1270762D02*
X817880Y1276350D01*
X961390Y1286988D02*
X965200Y1283178D01*
X961390Y1286988D02*
Y1289050D01*
X965200Y1263360D02*
Y1283178D01*
X815340Y1297940D02*
X971078D01*
X806450Y1289050D02*
X815340Y1297940D01*
X971078D02*
X977428Y1291590D01*
X167386Y1298448D02*
X171958Y1303020D01*
X644472D01*
X645233Y1302258D02*
X988822D01*
X1026160Y1264920D01*
X644472Y1303020D02*
X645233Y1302258D01*
X168148Y1306830D02*
X646050D01*
X163576Y1302258D02*
X168148Y1306830D01*
X999744Y1306068D02*
X1033780Y1272032D01*
X646050Y1306830D02*
X646812Y1306068D01*
X999744D01*
X2028190Y1778000D02*
X2042160Y1791970D01*
X1913890Y1778000D02*
X2028190D01*
X784860Y1773682D02*
X1909572D01*
X1913890Y1778000D01*
X727964Y1716786D02*
X784860Y1773682D01*
X727964Y1570228D02*
Y1716786D01*
Y1570228D02*
X772524Y1525668D01*
X220502Y1281430D02*
X223296Y1284224D01*
X218440Y1281430D02*
X220502D01*
X223296Y1284224D02*
X754888D01*
X111760Y1376680D02*
Y1389380D01*
X121805Y1366635D02*
X127115Y1361325D01*
X132712Y1354590D02*
X134874Y1353566D01*
X135823Y1353566D02*
X812800D01*
X111760Y1376680D02*
X114415Y1374025D01*
X134874Y1353566D02*
X135823Y1353566D01*
X953878Y1163320D02*
X2014220D01*
X952100Y1165098D02*
X953878Y1163320D01*
X942558Y1172210D02*
X949670Y1165098D01*
X952100D01*
X998220Y1154430D02*
X2030512D01*
X982980Y1139190D02*
X998220Y1154430D01*
X1019964Y1141730D02*
X2037080D01*
X1018476Y1140242D02*
X1019964Y1141730D01*
X1018476Y1139918D02*
Y1140242D01*
X754888Y1284224D02*
X769620Y1269492D01*
Y1254452D02*
X774900Y1249172D01*
X769620Y1254452D02*
Y1269492D01*
X756920Y1250442D02*
X765810Y1241552D01*
X756920Y1250442D02*
Y1264920D01*
X1080637Y1336802D02*
X1085850Y1331589D01*
Y1316990D02*
Y1331589D01*
X1133284Y1254252D02*
X1198880D01*
X1093787Y1214755D02*
X1133284Y1254252D01*
X1080770Y1203960D02*
X1091565Y1214755D01*
X1093787D01*
X1023982Y1249172D02*
X1032364Y1240790D01*
X1082040D01*
X1043940Y1266190D02*
X1044511Y1266761D01*
Y1273111D01*
X1077756Y1306356D01*
X1040130Y1258570D02*
X1048771D01*
X1089411Y1299210D01*
X1033780Y1264920D02*
X1040130Y1258570D01*
X1013678D02*
X1018758Y1253490D01*
X1051340D02*
X1062741Y1264890D01*
X1013460Y1258570D02*
X1013678D01*
X1018758Y1253490D02*
X1051340D01*
X971550Y1182370D02*
X972312Y1181608D01*
X1998726D01*
X948690Y1184656D02*
X959358Y1173988D01*
X948690Y1184656D02*
Y1184910D01*
X959358Y1173988D02*
X984504D01*
X803910Y1174750D02*
X831850Y1202690D01*
X1005840D01*
X774900Y1249172D02*
X1023982D01*
X778510Y1259840D02*
X784098Y1254252D01*
X969010D01*
X941070Y1172210D02*
X942558D01*
X1089411Y1299210D02*
X1134110D01*
X1009650Y1129030D02*
Y1131092D01*
X1018476Y1139918D01*
X1117895Y1123366D02*
X2049958D01*
X1114518Y1126744D02*
X1117895Y1123366D01*
X1106316Y1126744D02*
X1114518D01*
X815194Y1121899D02*
Y1129176D01*
X815086Y1129284D02*
X815194Y1129176D01*
X2049958Y1123366D02*
X2057908Y1131316D01*
X815194Y1121899D02*
X816682Y1120412D01*
X1099983D01*
X1106316Y1126744D01*
X979678Y1264920D02*
Y1268930D01*
X977526Y1271082D02*
X979678Y1268930D01*
X974278Y1271082D02*
X977526D01*
X972820Y1272540D02*
X974278Y1271082D01*
X792370Y1261872D02*
X963712D01*
X965200Y1263360D01*
X969010Y1254252D02*
X979678Y1264920D01*
X977428Y1291590D02*
X977900D01*
X963930Y1756156D02*
X2031746D01*
X883790Y1688970D02*
X904364D01*
X882650Y1687830D02*
X883790Y1688970D01*
X736600Y1677670D02*
Y1692656D01*
X810514Y1766570D01*
X1100153Y1263396D02*
X1564386D01*
X1098659Y1264890D02*
X1100153Y1263396D01*
X1062741Y1264890D02*
X1098659D01*
X1145373Y1365250D02*
X2006346D01*
X1086479Y1306356D02*
X1145373Y1365250D01*
X1077756Y1306356D02*
X1086479D01*
X1171553Y1189736D02*
X1939036D01*
X765810Y1241552D02*
X964946D01*
X984504Y1173988D02*
X1924798Y1175004D01*
X1927523Y1172279D01*
X2003113D01*
X2014220Y1183386D01*
X889254Y1341882D02*
X926592D01*
X958850Y1374140D01*
Y1386840D01*
X952754Y1392936D02*
X958850Y1386840D01*
X418338Y1392936D02*
X952754D01*
X385294Y1425980D02*
X418338Y1392936D01*
X125960Y1425980D02*
X385294D01*
X111760Y1440180D02*
X125960Y1425980D01*
X1011936Y1232154D02*
X1021080Y1241298D01*
X370586Y1232154D02*
X1011936D01*
X111760Y1465580D02*
X126746Y1450594D01*
Y1435124D02*
Y1450594D01*
Y1435124D02*
X132080Y1429790D01*
X147574D01*
X150852Y1433068D01*
X1053592D01*
X1105154Y1381506D01*
X137160Y1338580D02*
X867918D01*
X876046Y1330452D01*
X1071708D01*
X1073150Y1329010D01*
X97560Y1327380D02*
X111760Y1313180D01*
X97560Y1327380D02*
Y1346200D01*
X104140Y1352780D01*
X125960D01*
X129746Y1348994D01*
X147574D01*
X150368Y1346200D01*
X790194D01*
X791210Y1345184D01*
X875030D01*
X885952Y1334262D01*
X894334D01*
X896874Y1336802D01*
X1080637D01*
X111760Y1287780D02*
X122174Y1298194D01*
Y1323594D01*
X110260Y1324610D02*
X122174Y1323594D01*
X101370Y1333500D02*
X110260Y1324610D01*
X101370Y1333500D02*
Y1343660D01*
X106680Y1348970D01*
X116840D01*
X122150Y1343660D01*
Y1338580D02*
Y1343660D01*
Y1338580D02*
X132540Y1328190D01*
X637262D01*
X646684Y1318768D01*
X1005586D01*
X2031746Y1751584D02*
X2042160Y1741170D01*
X977039Y1751584D02*
X2031746D01*
X867057Y1641602D02*
X977039Y1751584D01*
X862076Y1641602D02*
X867057D01*
X870966Y1859280D02*
X1949450D01*
X2016760Y1791970D01*
X137160Y1440180D02*
X1100328D01*
X1155954Y1384554D01*
X111760Y1338580D02*
X120650Y1329690D01*
X125652D01*
X131748Y1323594D01*
X142240D01*
X148336Y1317498D01*
Y1305560D02*
Y1317498D01*
Y1305560D02*
X151638Y1302258D01*
X163576D01*
X1033780Y1264920D02*
Y1272032D01*
X142240Y1298448D02*
X167386D01*
X137160Y1303528D02*
X142240Y1298448D01*
X137160Y1303528D02*
Y1313180D01*
X1096772Y1106424D02*
X1109472Y1119124D01*
X769620Y1106424D02*
X1096772D01*
X123190Y1502410D02*
X717042D01*
X111760Y1490980D02*
X123190Y1502410D01*
X137160Y1490980D02*
X724662D01*
X904364Y1688970D02*
X912368Y1696974D01*
Y1704594D01*
X963930Y1756156D01*
X2031746D02*
X2042160Y1766570D01*
X810514D02*
X2016760D01*
D61*
X1825860Y1811020D02*
X1842370Y1794510D01*
X1525270Y1825550D02*
X1539800Y1811020D01*
X1825860D01*
X139209Y1389380D02*
X143019Y1385570D01*
X137160Y1389380D02*
X139209D01*
X143019Y1385570D02*
X406358D01*
X410168Y1389380D01*
X410718D01*
X918610Y1563370D02*
X1307630D01*
X900830Y1581150D02*
X918610Y1563370D01*
X1307630D02*
X1330490Y1586230D01*
X1350010D01*
X1408430Y1527810D01*
X762804Y1594234D02*
X937746D01*
X950830Y1581150D01*
X747180Y1578610D02*
X762804Y1594234D01*
X1842370Y1614170D02*
X2016760D01*
X1362056Y1691386D02*
X1377550Y1706880D01*
X957434Y1691386D02*
X1362056D01*
X949560Y1699260D02*
X957434Y1691386D01*
X787830Y1699260D02*
X899560D01*
X747180Y1658610D02*
X787830Y1699260D01*
D62*
X1485500Y1069490D02*
D03*
D63*
X1435500D02*
D03*
X1460500D02*
D03*
D64*
X1080770Y1254760D02*
D03*
X1144270Y1240790D02*
D03*
X949960Y1276350D02*
D03*
X961390Y1289050D02*
D03*
X218440Y1281430D02*
D03*
X111760Y1200150D02*
D03*
X187960Y1314450D02*
D03*
X2014220Y1163320D02*
D03*
X2030730Y1154430D02*
D03*
X2037080Y1141730D02*
D03*
X756920Y1264920D02*
D03*
X792370Y1261872D02*
D03*
X806450Y1289050D02*
D03*
X1085850Y1316990D02*
D03*
X1080770Y1203960D02*
D03*
X1082040Y1240790D02*
D03*
X1043940Y1266190D02*
D03*
X1026160Y1264920D02*
D03*
X971550Y1182370D02*
D03*
X948690Y1184910D02*
D03*
X803910Y1174750D02*
D03*
X778510Y1259840D02*
D03*
X941070Y1172210D02*
D03*
X1134110Y1299210D02*
D03*
X1009650Y1129030D02*
D03*
X982980Y1139190D02*
D03*
X972820Y1272540D02*
D03*
X977900Y1291590D02*
D03*
X1408430Y1527810D02*
D03*
X882650Y1687830D02*
D03*
X736600Y1677670D02*
D03*
X1564386Y1263396D02*
D03*
X1013460Y1258570D02*
D03*
X2006346Y1365250D02*
D03*
X1939036Y1189736D02*
D03*
X1171553D02*
D03*
X1998726Y1181608D02*
D03*
X948944Y1157478D02*
D03*
X1005840Y1202690D02*
D03*
X964946Y1241552D02*
D03*
X1118362Y1093978D02*
D03*
X1692546Y1025254D02*
D03*
X2014220Y1183386D02*
D03*
X889254Y1341882D02*
D03*
X1021080Y1241298D02*
D03*
X370586Y1232154D02*
D03*
X1198880Y1254252D02*
D03*
X1105154Y1381506D02*
D03*
X1073150Y1329010D02*
D03*
X1005586Y1318768D02*
D03*
X815086Y1129284D02*
D03*
X2057908Y1131316D02*
D03*
X862076Y1641602D02*
D03*
X870966Y1859280D02*
D03*
X772524Y1525668D02*
D03*
X1065410Y1309878D02*
D03*
X1155954Y1384554D02*
D03*
X951230Y1378966D02*
D03*
X825500D02*
D03*
X1234694Y1297940D02*
D03*
X1485500D02*
D03*
X1103884Y1255776D02*
D03*
X1109472Y1119124D02*
D03*
X769620Y1106424D02*
D03*
X717042Y1502410D02*
D03*
X724662Y1490980D02*
D03*
X410718Y1389380D02*
D03*
X812292Y1270762D02*
D03*
X1842370Y1614170D02*
D03*
X812800Y1353566D02*
D03*
D65*
X113030Y1677670D02*
X198120D01*
X297180Y1578610D01*
X113030Y1728470D02*
X239040D01*
X297180Y1786610D01*
M02*
