G04*
G04 #@! TF.GenerationSoftware,Altium Limited,Altium Designer,24.8.2 (39)*
G04*
G04 Layer_Physical_Order=1*
G04 Layer_Color=255*
%FSLAX44Y44*%
%MOMM*%
G71*
G04*
G04 #@! TF.SameCoordinates,10B77030-9BE5-4BC5-9E5E-3B2CA86DC2A3*
G04*
G04*
G04 #@! TF.FilePolarity,Positive*
G04*
G01*
G75*
%ADD10C,0.5080*%
%ADD17R,1.3589X0.2794*%
%ADD18R,0.2794X1.3589*%
%ADD19R,1.0549X1.0062*%
%ADD20R,1.3500X1.4500*%
%ADD21R,0.4000X0.5000*%
%ADD22R,0.7581X0.8121*%
%ADD23R,2.0000X3.0000*%
%ADD24R,1.6000X5.7000*%
G04:AMPARAMS|DCode=25|XSize=6.4mm|YSize=8.2mm|CornerRadius=0.064mm|HoleSize=0mm|Usage=FLASHONLY|Rotation=90.000|XOffset=0mm|YOffset=0mm|HoleType=Round|Shape=RoundedRectangle|*
%AMROUNDEDRECTD25*
21,1,6.4000,8.0720,0,0,90.0*
21,1,6.2720,8.2000,0,0,90.0*
1,1,0.1280,4.0360,3.1360*
1,1,0.1280,4.0360,-3.1360*
1,1,0.1280,-4.0360,-3.1360*
1,1,0.1280,-4.0360,3.1360*
%
%ADD25ROUNDEDRECTD25*%
G04:AMPARAMS|DCode=26|XSize=1mm|YSize=4.15mm|CornerRadius=0.05mm|HoleSize=0mm|Usage=FLASHONLY|Rotation=90.000|XOffset=0mm|YOffset=0mm|HoleType=Round|Shape=RoundedRectangle|*
%AMROUNDEDRECTD26*
21,1,1.0000,4.0500,0,0,90.0*
21,1,0.9000,4.1500,0,0,90.0*
1,1,0.1000,2.0250,0.4500*
1,1,0.1000,2.0250,-0.4500*
1,1,0.1000,-2.0250,-0.4500*
1,1,0.1000,-2.0250,0.4500*
%
%ADD26ROUNDEDRECTD26*%
%ADD27R,1.6002X2.2098*%
%ADD28R,0.7500X0.8500*%
%ADD29R,0.7000X0.8500*%
%ADD30R,0.8000X0.8000*%
%ADD31R,1.0000X0.9000*%
%ADD32R,0.8549X0.9062*%
%ADD33R,1.9000X2.3000*%
%ADD34R,1.0668X0.6096*%
%ADD35R,1.5500X1.3000*%
%ADD36R,0.8000X0.9000*%
%ADD44C,1.8034*%
%ADD45R,1.5700X1.5700*%
%ADD46C,1.5700*%
%ADD47C,1.5500*%
%ADD48R,1.5500X1.5500*%
%ADD49C,1.2000*%
%ADD50R,1.2000X1.2000*%
%ADD51R,1.5500X1.5500*%
%ADD52C,2.2000*%
%ADD53R,2.2000X2.2000*%
%ADD57C,0.3810*%
%ADD58C,0.3302*%
%ADD59C,0.3048*%
%ADD60C,0.2540*%
%ADD61C,0.8128*%
%ADD62R,1.7000X1.7000*%
%ADD63C,1.7000*%
%ADD64C,1.0160*%
D10*
X1617630Y1048100D02*
X1674622D01*
X1596240Y1069490D02*
X1617630Y1048100D01*
X1485500Y1069490D02*
X1596240D01*
D17*
X991171Y1265430D02*
D03*
Y1260430D02*
D03*
Y1255430D02*
D03*
Y1250430D02*
D03*
Y1245430D02*
D03*
Y1240430D02*
D03*
Y1235430D02*
D03*
Y1230430D02*
D03*
Y1225430D02*
D03*
Y1220430D02*
D03*
Y1215430D02*
D03*
Y1210430D02*
D03*
Y1205430D02*
D03*
Y1200430D02*
D03*
Y1195430D02*
D03*
Y1190430D02*
D03*
Y1185430D02*
D03*
Y1180430D02*
D03*
Y1175430D02*
D03*
Y1170430D02*
D03*
X1124649D02*
D03*
Y1175430D02*
D03*
Y1180430D02*
D03*
Y1185430D02*
D03*
Y1190430D02*
D03*
Y1195430D02*
D03*
Y1200430D02*
D03*
Y1205430D02*
D03*
Y1210430D02*
D03*
Y1215430D02*
D03*
Y1220430D02*
D03*
Y1225430D02*
D03*
Y1230430D02*
D03*
Y1235430D02*
D03*
Y1240430D02*
D03*
Y1245430D02*
D03*
Y1250430D02*
D03*
Y1255430D02*
D03*
Y1260430D02*
D03*
Y1265430D02*
D03*
D18*
X1010410Y1151191D02*
D03*
X1015410D02*
D03*
X1020410D02*
D03*
X1025410D02*
D03*
X1030410D02*
D03*
X1035410D02*
D03*
X1040410D02*
D03*
X1045410D02*
D03*
X1050410D02*
D03*
X1055410D02*
D03*
X1060410D02*
D03*
X1065410D02*
D03*
X1070410D02*
D03*
X1075410D02*
D03*
X1080410D02*
D03*
X1085410D02*
D03*
X1090410D02*
D03*
X1095410D02*
D03*
X1100410D02*
D03*
X1105410D02*
D03*
Y1284668D02*
D03*
X1100410D02*
D03*
X1095410D02*
D03*
X1090410D02*
D03*
X1085410D02*
D03*
X1080410D02*
D03*
X1075410D02*
D03*
X1070410D02*
D03*
X1065410D02*
D03*
X1060410D02*
D03*
X1055410D02*
D03*
X1050410D02*
D03*
X1045410D02*
D03*
X1040410D02*
D03*
X1035410D02*
D03*
X1030410D02*
D03*
X1025410D02*
D03*
X1020410D02*
D03*
X1015410D02*
D03*
X1010410D02*
D03*
D19*
X772524Y1242060D02*
D03*
X787036D02*
D03*
X772524Y1169670D02*
D03*
X787037D02*
D03*
X772524Y1355090D02*
D03*
X787037D02*
D03*
X772524Y1316990D02*
D03*
X787036D02*
D03*
X772524Y1280160D02*
D03*
X787037D02*
D03*
X772160Y1205230D02*
D03*
X786673D02*
D03*
X1692546Y1005840D02*
D03*
X1678034D02*
D03*
D20*
X1352550Y1410970D02*
D03*
X1369050D02*
D03*
X902970Y1841500D02*
D03*
X919470D02*
D03*
X1812930Y1593850D02*
D03*
X1829430D02*
D03*
D21*
X844930Y1322070D02*
D03*
X836930D02*
D03*
X844740Y1188720D02*
D03*
X836740D02*
D03*
X844930Y1250950D02*
D03*
X836930D02*
D03*
X1569910Y1017270D02*
D03*
X1561910D02*
D03*
X1199960Y1329690D02*
D03*
X1207960D02*
D03*
D22*
X838280Y1353820D02*
D03*
X850820D02*
D03*
D23*
X893290Y1791970D02*
D03*
X953290D02*
D03*
X1791180Y1677670D02*
D03*
X1851180D02*
D03*
X1330170Y1484630D02*
D03*
X1390170D02*
D03*
D24*
X1704980Y1634490D02*
D03*
X1657980D02*
D03*
D25*
X1625600Y1497330D02*
D03*
D26*
X1521100Y1463330D02*
D03*
Y1480330D02*
D03*
Y1497330D02*
D03*
Y1514330D02*
D03*
Y1531330D02*
D03*
D27*
X1331341Y1805940D02*
D03*
X1371219D02*
D03*
D28*
X836780Y1220470D02*
D03*
X849780D02*
D03*
X1201120Y1297940D02*
D03*
X1214120D02*
D03*
X942340Y1355090D02*
D03*
X955340D02*
D03*
D29*
X835760Y1281430D02*
D03*
X848260D02*
D03*
X1202790Y1268730D02*
D03*
X1215290D02*
D03*
D30*
X854590Y1090930D02*
D03*
X839590D02*
D03*
X854590Y1130300D02*
D03*
X839590D02*
D03*
D31*
X788780Y1090930D02*
D03*
X770780D02*
D03*
X788780Y1130300D02*
D03*
X770780D02*
D03*
D32*
X1575977Y1055370D02*
D03*
X1563463D02*
D03*
D33*
X1504000Y999490D02*
D03*
X1417000D02*
D03*
D34*
X1695958Y1060100D02*
D03*
Y1048100D02*
D03*
X1674622D02*
D03*
Y1060100D02*
D03*
D35*
X1201040Y1217570D02*
D03*
Y1172570D02*
D03*
X1280540Y1217570D02*
D03*
Y1172570D02*
D03*
X839090Y1453790D02*
D03*
Y1408790D02*
D03*
X918590Y1453790D02*
D03*
Y1408790D02*
D03*
D36*
X919360Y1355090D02*
D03*
X904360D02*
D03*
D44*
X297180Y1578610D02*
D03*
Y1786610D02*
D03*
X747180Y1658610D02*
D03*
Y1578610D02*
D03*
X113030Y1779270D02*
D03*
Y1728470D02*
D03*
Y1677670D02*
D03*
D45*
X111760Y1490980D02*
D03*
X2016760Y1791970D02*
D03*
D46*
X111760Y1465580D02*
D03*
Y1440180D02*
D03*
Y1414780D02*
D03*
Y1389380D02*
D03*
Y1363980D02*
D03*
Y1338580D02*
D03*
Y1313180D02*
D03*
Y1287780D02*
D03*
Y1262380D02*
D03*
X137160Y1490980D02*
D03*
Y1465580D02*
D03*
Y1440180D02*
D03*
Y1414780D02*
D03*
Y1389380D02*
D03*
Y1363980D02*
D03*
Y1338580D02*
D03*
Y1313180D02*
D03*
Y1287780D02*
D03*
Y1262380D02*
D03*
X2042160Y1563370D02*
D03*
Y1588770D02*
D03*
Y1614170D02*
D03*
Y1639570D02*
D03*
Y1664970D02*
D03*
Y1690370D02*
D03*
Y1715770D02*
D03*
Y1741170D02*
D03*
Y1766570D02*
D03*
Y1791970D02*
D03*
X2016760Y1563370D02*
D03*
Y1588770D02*
D03*
Y1614170D02*
D03*
Y1639570D02*
D03*
Y1664970D02*
D03*
Y1690370D02*
D03*
Y1715770D02*
D03*
Y1741170D02*
D03*
Y1766570D02*
D03*
D47*
X899560Y1699260D02*
D03*
X114300Y1104900D02*
D03*
Y1079500D02*
D03*
X900830Y1581150D02*
D03*
X1792370Y1794510D02*
D03*
X1330490Y1586230D02*
D03*
X1327550Y1706880D02*
D03*
D48*
X949560Y1699260D02*
D03*
X950830Y1581150D02*
D03*
X1842370Y1794510D02*
D03*
X1380490Y1586230D02*
D03*
X1377550Y1706880D02*
D03*
D49*
X111760Y964880D02*
D03*
Y944880D02*
D03*
Y924880D02*
D03*
Y904880D02*
D03*
D50*
Y884880D02*
D03*
D51*
X114300Y1054100D02*
D03*
D52*
X1525270Y1825550D02*
D03*
D53*
Y1616150D02*
D03*
D57*
X852090Y1355090D02*
X900684D01*
X850820Y1353820D02*
X852090Y1355090D01*
X904360Y1351347D02*
X913317Y1342390D01*
X935990D01*
Y1223772D02*
Y1342390D01*
Y1347463D01*
X932180Y1165860D02*
Y1219962D01*
X935727Y1162313D02*
X953779D01*
X932180Y1165860D02*
X935727Y1162313D01*
X1143000Y1246197D02*
Y1255270D01*
Y1246197D02*
X1143055Y1246142D01*
Y1242005D02*
Y1246142D01*
Y1242005D02*
X1144270Y1240790D01*
X1153160Y1230376D02*
Y1316990D01*
X1129792Y1340358D02*
X1153160Y1316990D01*
X1143214Y1220430D02*
X1153160Y1230376D01*
X1064768Y1340358D02*
X1129792D01*
X941070Y1263868D02*
X942558Y1262380D01*
X941070Y1263868D02*
Y1340820D01*
X955959Y1262380D02*
X962660Y1269081D01*
X942558Y1262380D02*
X955959D01*
X941070Y1340820D02*
X955340Y1355090D01*
X935990Y1347463D02*
X939800D01*
X932180Y1219962D02*
X935990Y1223772D01*
X991171Y1210430D02*
X1001395D01*
Y1264475D01*
X1002030Y1265110D01*
Y1271016D01*
X993902D02*
X1002030D01*
X95250Y1109798D02*
X111760Y1126308D01*
Y1200150D01*
Y1414780D02*
X137160D01*
X109220Y1012444D02*
Y1039190D01*
X95250Y1053160D02*
X109220Y1039190D01*
X95250Y1053160D02*
Y1109798D01*
X109220Y1012444D02*
X123190Y998474D01*
Y896310D02*
Y998474D01*
X111760Y884880D02*
X123190Y896310D01*
X187960Y1195324D02*
Y1314450D01*
X100330Y1107694D02*
X187960Y1195324D01*
X87630Y1348740D02*
X91440Y1352550D01*
Y1372870D01*
X104073Y1385503D01*
X106680Y1387517D02*
Y1388110D01*
X104073Y1385503D02*
X104666D01*
X106680Y1387517D01*
X953779Y1162313D02*
X958850Y1167384D01*
Y1212596D02*
X971684Y1225430D01*
X958850Y1167384D02*
Y1212596D01*
X100330Y1068070D02*
X114300Y1054100D01*
X100330Y1068070D02*
Y1107694D01*
X87630Y989010D02*
Y1348740D01*
Y989010D02*
X111760Y964880D01*
X99060Y952180D02*
X111760Y964880D01*
X99060Y880364D02*
Y952180D01*
Y880364D02*
X105664Y873760D01*
X114300Y1104900D02*
X132080Y1087120D01*
X119634Y873760D02*
X132080Y886206D01*
Y1087120D01*
X1132967Y1265303D02*
X1143000Y1255270D01*
X1124775Y1265303D02*
X1132967D01*
X967086Y1281430D02*
X983488D01*
X993902Y1271016D01*
X962660Y1269081D02*
Y1277004D01*
X967086Y1281430D01*
X1575977Y1055114D02*
Y1055370D01*
Y1055114D02*
X1579880Y1051210D01*
X1573436Y1010920D02*
X1579880Y1017364D01*
Y1051210D01*
X1469797Y1053787D02*
Y1056233D01*
X1460500Y1065921D02*
Y1069490D01*
Y1065921D02*
X1464762Y1061659D01*
Y1061268D02*
Y1061659D01*
Y1061268D02*
X1469797Y1056233D01*
Y1053787D02*
X1475518Y1048066D01*
X1481924D01*
X1519070Y1010920D01*
X1184910Y1174802D02*
X1187142Y1172570D01*
X1184910Y1174802D02*
Y1302512D01*
X1207960Y1325562D01*
X1187142Y1172570D02*
X1201040D01*
X1551940Y1060844D02*
X1554172Y1063076D01*
X1581566D01*
X1551940Y1042924D02*
Y1060844D01*
Y1042924D02*
X1561910Y1032954D01*
X1581566Y1063076D02*
X1581652Y1062990D01*
X1584452D02*
X1651762Y995680D01*
X1581652Y1062990D02*
X1584452D01*
X1698752Y995680D02*
X1705610Y1002538D01*
X1701800Y1060100D02*
X1705610Y1056290D01*
Y1002538D02*
Y1056290D01*
X1842450Y1662532D02*
Y1668940D01*
X1851180Y1677670D01*
X1199960Y1333818D02*
Y1363408D01*
X1055410Y1346200D02*
Y1381800D01*
Y1331000D02*
Y1346200D01*
X951230Y1355090D02*
Y1378966D01*
X1332419Y1172570D02*
X1369050Y1135940D01*
X1561910Y1019556D02*
Y1032954D01*
X948944Y1157478D02*
X953779Y1162313D01*
X1055410Y1381800D02*
X1080770Y1407160D01*
X1156208D01*
X1199960Y1363408D01*
X971684Y1225430D02*
X991171D01*
X1075410Y1136930D02*
Y1151191D01*
Y1136930D02*
X1118362Y1093978D01*
X1692546Y1005840D02*
Y1025254D01*
X1065410Y1284668D02*
Y1309878D01*
X1124649Y1220430D02*
X1143214D01*
X1055410Y1331000D02*
X1064768Y1340358D01*
X1055410Y1284668D02*
Y1331000D01*
X1280540Y1172570D02*
X1332419D01*
X951230Y1355090D02*
X955340D01*
X825500Y1378966D02*
X838280Y1366186D01*
Y1353820D02*
Y1366186D01*
X939800Y1347463D02*
X942340Y1350003D01*
Y1355090D01*
X1214120Y1297940D02*
X1234694D01*
X1105410Y1276860D02*
Y1284668D01*
X1103884Y1275334D02*
X1105410Y1276860D01*
X1103884Y1255776D02*
Y1275334D01*
X1207960Y1325562D02*
Y1329690D01*
X1060410Y1151191D02*
Y1236044D01*
X1055410Y1241044D02*
X1060410Y1236044D01*
X1055410Y1241044D02*
Y1284668D01*
X1369050Y1135940D02*
X1435500Y1069490D01*
X1651762Y995680D02*
X1698752D01*
X1499634Y1480330D02*
X1521100D01*
X1544320Y1497330D02*
X1549400Y1492250D01*
X1199960Y1329690D02*
Y1333818D01*
X1203960Y1337818D01*
X1209040D01*
X1214120Y1332738D01*
Y1297940D02*
Y1332738D01*
X105664Y873760D02*
X119634D01*
X955340Y1355090D02*
X1046520D01*
X1055410Y1346200D01*
X1678034Y1005840D02*
Y1037954D01*
X1688180Y1048100D01*
X1695958D01*
X1519070Y1010920D02*
X1573436D01*
X1791180Y1735328D02*
X1792370Y1736518D01*
X1674622Y1048100D02*
Y1060100D01*
X1201040Y1172570D02*
X1280540D01*
X919360Y1355090D02*
Y1376306D01*
X930148Y1387094D01*
Y1425320D01*
X918590Y1436878D02*
X930148Y1425320D01*
X918590Y1436878D02*
Y1453790D01*
D58*
X1035410Y1137560D02*
Y1151191D01*
X1041400Y1131570D02*
X1053980D01*
X1035410Y1137560D02*
X1041400Y1131570D01*
X1053980D02*
X1065410Y1143000D01*
X1115278Y1165860D02*
X1193080D01*
X1113790Y1167348D02*
Y1190966D01*
Y1167348D02*
X1115278Y1165860D01*
X1089326Y1215430D02*
X1113790Y1190966D01*
X1060410Y1244346D02*
Y1258610D01*
Y1284668D01*
Y1244346D02*
X1065410Y1239346D01*
X1193080Y1165860D02*
X1199790Y1172570D01*
X1065410Y1151191D02*
Y1239346D01*
X1089326Y1215430D01*
X1124649D01*
X1065410Y1143000D02*
Y1151191D01*
D59*
X1070410Y1265120D02*
Y1284668D01*
Y1265120D02*
X1080770Y1254760D01*
D60*
X1160123Y1194471D02*
X1164590Y1198937D01*
X1155258Y1187209D02*
X1156223Y1187265D01*
X1105154Y1381506D02*
X1164590Y1322070D01*
Y1198937D02*
Y1322070D01*
X1160123Y1191165D02*
Y1194471D01*
X1156906Y1187949D02*
X1160123Y1191165D01*
X1124649Y1185430D02*
X1155258Y1187209D01*
X1156223Y1187265D02*
X1156906Y1187949D01*
X1170940Y1199899D02*
Y1367826D01*
X1155954Y1382812D02*
X1170940Y1367826D01*
X1149776Y1175430D02*
X1163933Y1189587D01*
Y1192892D01*
X1170940Y1199899D01*
X1155954Y1382812D02*
Y1384554D01*
X949960Y1276350D02*
Y1302004D01*
X983742Y1335786D01*
X998728Y1326388D02*
X1020826D01*
X961390Y1289050D02*
X998728Y1326388D01*
X996442Y1279398D02*
X1010283D01*
X987244Y1287780D02*
X988060D01*
X996442Y1279398D01*
X978879Y1290611D02*
X984413D01*
X977900Y1291590D02*
X978879Y1290611D01*
X984413D02*
X987244Y1287780D01*
X922274Y1153160D02*
Y1323086D01*
X881634Y1349756D02*
X895604D01*
X922274Y1323086D01*
X772524Y1355090D02*
Y1525668D01*
X764709Y1288167D02*
X787036Y1310494D01*
Y1316990D01*
X764709Y1272589D02*
Y1288167D01*
X1199790Y1172570D02*
X1201040D01*
X179070Y1369060D02*
X218440Y1329690D01*
Y1281430D02*
Y1329690D01*
X137160Y1363980D02*
X140148D01*
X145228Y1369060D02*
X179070D01*
X140148Y1363980D02*
X145228Y1369060D01*
X2027960Y1177060D02*
Y1650770D01*
X2014220Y1163320D02*
X2027960Y1177060D01*
X2030730Y1154430D02*
X2031770Y1155470D01*
Y1629180D01*
X2056360Y1161010D02*
Y1676170D01*
X2037080Y1141730D02*
X2056360Y1161010D01*
X756920Y1264920D02*
Y1315829D01*
X787037Y1345946D01*
X749300Y1259840D02*
X767080Y1242060D01*
X749300Y1528826D02*
X862076Y1641602D01*
X749300Y1259840D02*
Y1528826D01*
X787037Y1280160D02*
X797560D01*
X806450Y1289050D01*
X1085850Y1316252D02*
X1090410Y1311692D01*
X1085850Y1316252D02*
Y1316990D01*
X1090410Y1284668D02*
Y1311692D01*
X1087818Y1203516D02*
X1100410Y1190924D01*
X1080770Y1203960D02*
X1081214Y1203516D01*
X1087818D01*
X1083498Y1242248D02*
Y1246492D01*
X1085152Y1248146D01*
X1082040Y1240790D02*
X1083498Y1242248D01*
X1085152Y1248146D02*
X1111468D01*
X1020410Y1189125D02*
X1043940Y1212655D01*
Y1266190D01*
X1025410Y1265670D02*
Y1284668D01*
Y1265670D02*
X1026160Y1264920D01*
X1030410Y1284668D02*
Y1316804D01*
X1020826Y1326388D02*
X1030410Y1316804D01*
X724662Y1193038D02*
Y1490980D01*
X770780Y1130300D02*
Y1146920D01*
X724662Y1193038D02*
X770780Y1146920D01*
X972360Y1181560D02*
X979502D01*
X971550Y1182370D02*
X972360Y1181560D01*
X963930Y1202182D02*
X977178Y1215430D01*
X960120Y1147318D02*
X963930Y1151128D01*
Y1202182D01*
X979502Y1181560D02*
X980632Y1180430D01*
X948690Y1213038D02*
X974470Y1238818D01*
X948690Y1184910D02*
Y1213038D01*
X975212Y1240511D02*
X975614Y1250430D01*
X974470Y1238818D02*
X975172Y1239520D01*
X975212Y1240511D01*
X980632Y1180430D02*
X991171D01*
X787037Y1169670D02*
X798612D01*
X803692Y1174750D01*
X803910D01*
X777458Y1259840D02*
X778510D01*
X764709Y1272589D02*
X777458Y1259840D01*
X941070Y1223429D02*
X955535Y1237894D01*
X941070Y1172210D02*
Y1223429D01*
X1111504Y1266190D02*
Y1276604D01*
X1134110Y1299210D01*
X1111504Y1266190D02*
X1117264Y1260430D01*
X1124649Y1265430D02*
X1124775Y1265303D01*
X1010410Y1129790D02*
Y1151191D01*
X1009650Y1129030D02*
X1010410Y1129790D01*
X991171Y1185430D02*
X991299Y1185303D01*
X998855D01*
X1000506Y1156716D02*
Y1183652D01*
X982980Y1139190D02*
X1000506Y1156716D01*
X998855Y1185303D02*
X1000506Y1183652D01*
X973137Y1272223D02*
X979995D01*
X972820Y1272540D02*
X973137Y1272223D01*
X979995D02*
X985266Y1266952D01*
Y1265430D02*
X991171D01*
X985266D02*
Y1266952D01*
X1010410Y1279525D02*
Y1284668D01*
X1010283Y1279398D02*
X1010410Y1279525D01*
X1842370Y1662452D02*
X1842450Y1662532D01*
X891794Y1631696D02*
Y1678686D01*
X882650Y1687830D02*
X891794Y1678686D01*
X735584Y1676654D02*
X736600Y1677670D01*
X735584Y1215500D02*
Y1676654D01*
X836930Y1319276D02*
Y1322070D01*
Y1310132D02*
Y1319276D01*
Y1329436D02*
Y1337818D01*
Y1322070D02*
Y1329436D01*
X1564386Y1263396D02*
X2016760Y1715770D01*
X1013460Y1196278D02*
Y1258570D01*
X1007612Y1190430D02*
X1013460Y1196278D01*
X991171Y1190430D02*
X1007612D01*
X2002560Y1650770D02*
X2016760Y1664970D01*
X2002560Y1369036D02*
Y1650770D01*
Y1369036D02*
X2006346Y1365250D01*
X1020410Y1151191D02*
Y1189125D01*
X2029460Y1703070D02*
X2042160Y1715770D01*
X2011680Y1703070D02*
X2029460D01*
X1993138Y1684528D02*
X2011680Y1703070D01*
X1993138Y1243838D02*
Y1684528D01*
X1939036Y1189736D02*
X1993138Y1243838D01*
X1152247Y1170430D02*
X1171553Y1189736D01*
X1124649Y1170430D02*
X1152247D01*
X1998726Y1181608D02*
Y1672336D01*
X2016760Y1690370D01*
X828548Y1301750D02*
X836930Y1310132D01*
X828548Y1271016D02*
Y1301750D01*
Y1271016D02*
X836930Y1262634D01*
Y1250950D02*
Y1262634D01*
Y1319276D02*
X840486Y1315720D01*
X847598D01*
X881634Y1349756D01*
X922274Y1153160D02*
X928116Y1147318D01*
X960120D01*
X977178Y1215430D02*
X991171D01*
X836930Y1246378D02*
Y1250950D01*
X829310Y1238758D02*
X836930Y1246378D01*
X829310Y1208088D02*
Y1238758D01*
Y1208088D02*
X836740Y1200658D01*
Y1188720D02*
Y1200658D01*
X787036Y1256538D02*
X792370Y1261872D01*
X787036Y1242060D02*
Y1256538D01*
X1005840Y1202690D02*
Y1262634D01*
X1020410Y1277204D01*
Y1284668D01*
X787037Y1345946D02*
Y1355090D01*
X964946Y1241552D02*
Y1246366D01*
X972820Y1254240D01*
X982552D01*
X991171Y1255430D01*
X975614Y1250430D02*
X991171D01*
X2014220Y1183386D02*
Y1550670D01*
X2006370Y1558520D02*
X2014220Y1550670D01*
X2006370Y1558520D02*
Y1619020D01*
X2016760Y1629410D01*
Y1639570D01*
X983234Y1175430D02*
X991171D01*
X972312Y1164508D02*
X983234Y1175430D01*
X972312Y1148080D02*
Y1164508D01*
X967232Y1143000D02*
X972312Y1148080D01*
X894334Y1143000D02*
X967232D01*
X889254Y1148080D02*
X894334Y1143000D01*
X889254Y1148080D02*
Y1341882D01*
X1015410Y1151191D02*
Y1190670D01*
X1021080Y1196340D01*
Y1241298D01*
X137160Y1465580D02*
X370586Y1232154D01*
X1100410Y1151191D02*
Y1190924D01*
X1198880Y1254252D02*
X1202790Y1258162D01*
Y1268730D01*
X1073150Y1329010D02*
X1086479D01*
X1100410Y1315079D01*
Y1284668D02*
Y1315079D01*
X1005586Y1318768D02*
X1015410Y1308944D01*
Y1284668D02*
Y1308944D01*
X772160Y1197864D02*
Y1205230D01*
Y1197864D02*
X786384Y1183640D01*
X810006D01*
X815086Y1178560D01*
Y1129284D02*
Y1178560D01*
X2057908Y1131316D02*
X2060194Y1133602D01*
Y1747520D01*
X2053844Y1753870D02*
X2060194Y1747520D01*
X2029460Y1753870D02*
X2053844D01*
X2016760Y1741170D02*
X2029460Y1753870D01*
X767080Y1242060D02*
X772524D01*
Y1316990D02*
Y1324974D01*
X795020Y1347470D01*
Y1561338D01*
X870966Y1637284D01*
Y1859280D01*
X1124649Y1175430D02*
X1149776D01*
X900684Y1355090D02*
X904360D01*
Y1351347D02*
Y1355090D01*
X1117264Y1260430D02*
X1124649D01*
X1113752Y1250430D02*
X1124649D01*
X1111468Y1248146D02*
X1113752Y1250430D01*
X1025410Y1116342D02*
Y1151191D01*
X977138Y1068070D02*
X1025410Y1116342D01*
X787400Y1068070D02*
X977138D01*
X781050Y1074420D02*
X787400Y1068070D01*
X781050Y1074420D02*
Y1096772D01*
X777410Y1100412D02*
X781050Y1096772D01*
X777410Y1100412D02*
Y1129030D01*
X776140Y1130300D02*
X777410Y1129030D01*
X770780Y1130300D02*
X776140D01*
X847224Y1083564D02*
X854590Y1090930D01*
X834390Y1083564D02*
X847224D01*
X832358Y1085596D02*
X834390Y1083564D01*
X832358Y1085596D02*
Y1099312D01*
X796290Y1135380D02*
X832358Y1099312D01*
X796290Y1135380D02*
Y1137920D01*
X796036Y1138174D02*
X796290Y1137920D01*
X782320Y1138174D02*
X796036D01*
X781220Y1137074D02*
X782320Y1138174D01*
X781220Y1107888D02*
Y1137074D01*
Y1107888D02*
X788780Y1100328D01*
Y1090930D02*
Y1100328D01*
X1090410Y1138186D02*
Y1151191D01*
Y1138186D02*
X1109472Y1119124D01*
X769620Y1106424D02*
X770780Y1105264D01*
Y1090930D02*
Y1105264D01*
X737108Y1090930D02*
X770780D01*
X717042Y1110996D02*
X737108Y1090930D01*
X717042Y1110996D02*
Y1502410D01*
X2027960Y1650770D02*
X2042160Y1664970D01*
X955535Y1237894D02*
Y1249680D01*
X963905Y1258050D01*
X975691D01*
X978071Y1260430D01*
X991171D01*
X772524Y1280160D02*
Y1284080D01*
X803148Y1314704D01*
Y1543050D01*
X891794Y1631696D01*
X1035410Y1284668D02*
Y1326536D01*
X1026160Y1335786D02*
X1035410Y1326536D01*
X983742Y1335786D02*
X1026160D01*
X812292Y1214120D02*
Y1270762D01*
X803402Y1205230D02*
X812292Y1214120D01*
X786673Y1205230D02*
X803402D01*
X1201120Y1290320D02*
Y1297940D01*
Y1290320D02*
X1215290Y1276150D01*
Y1268730D02*
Y1276150D01*
X839090Y1446022D02*
Y1453790D01*
X817880Y1424812D02*
X839090Y1446022D01*
X817880Y1356868D02*
Y1424812D01*
Y1356868D02*
X836930Y1337818D01*
X1563463Y1048608D02*
Y1055370D01*
Y1048608D02*
X1569910Y1042162D01*
Y1017270D02*
Y1042162D01*
X1695958Y1060100D02*
X1701800D01*
X788780Y1107440D02*
Y1130300D01*
Y1107440D02*
X819260Y1076960D01*
X856234D01*
X861314Y1082040D01*
Y1123576D01*
X854590Y1130300D02*
X861314Y1123576D01*
X812800Y1353566D02*
X836930Y1329436D01*
X2042160Y1690370D02*
X2056360Y1676170D01*
X735584Y1215500D02*
X772524Y1178560D01*
Y1169670D02*
Y1178560D01*
X2031770Y1629180D02*
X2042160Y1639570D01*
X1561910Y1017270D02*
Y1019556D01*
X1523048Y1058418D02*
X1561910Y1019556D01*
X1475740Y1058418D02*
X1523048D01*
X1474216Y1059942D02*
X1475740Y1058418D01*
X1474216Y1059942D02*
Y1084830D01*
X1471926Y1087120D02*
X1474216Y1084830D01*
X1453130Y1087120D02*
X1471926D01*
X1435500Y1069490D02*
X1453130Y1087120D01*
X848260Y1276704D02*
Y1281430D01*
Y1276704D02*
X849630Y1275334D01*
Y1245870D02*
Y1275334D01*
X836780Y1233020D02*
X849630Y1245870D01*
X836780Y1220470D02*
Y1233020D01*
X835760Y1269238D02*
Y1281430D01*
Y1269238D02*
X844930Y1260068D01*
Y1250950D02*
Y1260068D01*
X1390170Y1479550D02*
Y1484630D01*
X1201040Y1217570D02*
X1209040D01*
X1215290Y1223820D01*
Y1268730D01*
X1330170Y1535176D02*
X1330490Y1535496D01*
X849780Y1206968D02*
Y1220470D01*
X844740Y1201928D02*
X849780Y1206968D01*
X844740Y1188720D02*
Y1201928D01*
X949560Y1640840D02*
X950830Y1639570D01*
X836740Y1160836D02*
Y1188720D01*
Y1160836D02*
X839590Y1157986D01*
Y1130300D02*
Y1157986D01*
Y1090930D02*
Y1130300D01*
X918590Y1388878D02*
Y1408790D01*
X904360Y1374648D02*
X918590Y1388878D01*
X904360Y1355090D02*
Y1374648D01*
X839090Y1387140D02*
Y1408790D01*
Y1387140D02*
X850820Y1375410D01*
Y1353820D02*
Y1375410D01*
Y1340660D02*
Y1353820D01*
X844930Y1334770D02*
X850820Y1340660D01*
X844930Y1322070D02*
Y1334770D01*
X1209040Y1217570D02*
X1280540D01*
D61*
X111760Y1363980D02*
X115417D01*
X137160Y1387331D02*
Y1389380D01*
X133374Y1381937D02*
Y1383545D01*
X137160Y1387331D01*
X115417Y1363980D02*
X133374Y1381937D01*
X1845310Y1593850D02*
X1852930Y1601470D01*
X1851180Y1677670D02*
X1852930Y1675920D01*
Y1601470D02*
Y1675920D01*
X1491760Y1480330D02*
X1499634D01*
X1485500Y1474070D02*
X1491760Y1480330D01*
X1485500Y1297940D02*
Y1474070D01*
X1494790Y1453896D02*
Y1475486D01*
Y1453896D02*
X1503680Y1445006D01*
X1829430Y1593850D02*
X1845310D01*
X1842370Y1677670D02*
Y1794510D01*
Y1614170D02*
Y1662452D01*
X1408430Y1527810D02*
X1421910Y1514330D01*
X1521100D01*
X1377550Y1649368D02*
Y1706880D01*
Y1649368D02*
X1380490Y1646428D01*
X899560Y1686430D02*
X905510Y1680480D01*
Y1587825D02*
Y1680480D01*
X900830Y1581150D02*
Y1583145D01*
X905510Y1587825D01*
X1791180Y1573248D02*
Y1600200D01*
X1485500Y1069490D02*
Y1297940D01*
X1544320Y1497330D02*
X1625600D01*
X1521100D02*
X1544320D01*
X1375400Y1479550D02*
X1390170D01*
X893290Y1705530D02*
Y1791970D01*
Y1705530D02*
X899560Y1699260D01*
X902970Y1826034D02*
Y1841500D01*
X893290Y1816354D02*
X902970Y1826034D01*
X893290Y1791970D02*
Y1816354D01*
X1748160Y1677670D02*
X1791180D01*
X1704980Y1634490D02*
X1748160Y1677670D01*
X1851180D02*
Y1785700D01*
X1842370Y1794510D02*
X1851180Y1785700D01*
X1390829Y1825550D02*
X1525270D01*
X1371219Y1805940D02*
X1390829Y1825550D01*
X1380490Y1586230D02*
Y1646428D01*
X1402870Y1497330D02*
X1521100D01*
X1390170Y1484630D02*
X1402870Y1497330D01*
X1390170Y1484630D02*
Y1576550D01*
X1380490Y1586230D02*
X1390170Y1576550D01*
X918590Y1453790D02*
Y1548910D01*
X950830Y1581150D01*
X1543610Y1634490D02*
X1657980D01*
X1525270Y1616150D02*
X1543610Y1634490D01*
X747180Y1658610D02*
Y1695626D01*
X741680Y1701126D02*
X747180Y1695626D01*
X722464Y1701126D02*
X741680D01*
X410718Y1389380D02*
X722464Y1701126D01*
X1369050Y1135940D02*
Y1410970D01*
X1494790Y1475486D02*
X1499634Y1480330D01*
X1503680Y1445006D02*
X1662938D01*
X1791180Y1573248D01*
X1549400Y1468410D02*
Y1492250D01*
X1544320Y1463330D02*
X1549400Y1468410D01*
X1521100Y1463330D02*
X1544320D01*
X899560Y1686430D02*
Y1699260D01*
X919470Y1825790D02*
Y1841500D01*
Y1825790D02*
X953290Y1791970D01*
X1330170Y1484630D02*
X1346200D01*
X1352550Y1478280D01*
Y1410970D02*
Y1478280D01*
X1369050Y1473200D02*
X1375400Y1479550D01*
X1369050Y1410970D02*
Y1473200D01*
X1791180Y1600200D02*
Y1677670D01*
Y1600200D02*
X1797530Y1593850D01*
X1812930D01*
X1330490Y1535496D02*
Y1586230D01*
X1330170Y1484630D02*
Y1535176D01*
X1327550Y1647844D02*
Y1706880D01*
Y1647844D02*
X1330490Y1644904D01*
Y1586230D02*
Y1644904D01*
X1331341Y1758169D02*
Y1805940D01*
X1327550Y1754378D02*
X1331341Y1758169D01*
X1327550Y1706880D02*
Y1754378D01*
X1792370Y1736518D02*
Y1794510D01*
X1791180Y1677670D02*
Y1735328D01*
X1371219Y1759439D02*
Y1805940D01*
Y1759439D02*
X1377550Y1753108D01*
Y1706880D02*
Y1753108D01*
X949560Y1640840D02*
Y1699260D01*
X950830Y1581150D02*
Y1639570D01*
X953290Y1747440D02*
Y1791970D01*
X949560Y1743710D02*
X953290Y1747440D01*
X949560Y1699260D02*
Y1743710D01*
X839090Y1453790D02*
X918590D01*
X1525270Y1575668D02*
Y1616150D01*
X1521100Y1571498D02*
X1525270Y1575668D01*
X1521100Y1531330D02*
Y1571498D01*
D62*
X1485500Y1069490D02*
D03*
D63*
X1435500D02*
D03*
X1460500D02*
D03*
D64*
X1080770Y1254760D02*
D03*
X1144270Y1240790D02*
D03*
X949960Y1276350D02*
D03*
X961390Y1289050D02*
D03*
X218440Y1281430D02*
D03*
X111760Y1200150D02*
D03*
X187960Y1314450D02*
D03*
X2014220Y1163320D02*
D03*
X2030730Y1154430D02*
D03*
X2037080Y1141730D02*
D03*
X756920Y1264920D02*
D03*
X792370Y1261872D02*
D03*
X806450Y1289050D02*
D03*
X1085850Y1316990D02*
D03*
X1080770Y1203960D02*
D03*
X1082040Y1240790D02*
D03*
X1043940Y1266190D02*
D03*
X1026160Y1264920D02*
D03*
X971550Y1182370D02*
D03*
X948690Y1184910D02*
D03*
X803910Y1174750D02*
D03*
X778510Y1259840D02*
D03*
X941070Y1172210D02*
D03*
X1134110Y1299210D02*
D03*
X1009650Y1129030D02*
D03*
X982980Y1139190D02*
D03*
X972820Y1272540D02*
D03*
X977900Y1291590D02*
D03*
X1408430Y1527810D02*
D03*
X882650Y1687830D02*
D03*
X736600Y1677670D02*
D03*
X1564386Y1263396D02*
D03*
X1013460Y1258570D02*
D03*
X2006346Y1365250D02*
D03*
X1939036Y1189736D02*
D03*
X1171553D02*
D03*
X1998726Y1181608D02*
D03*
X948944Y1157478D02*
D03*
X1005840Y1202690D02*
D03*
X964946Y1241552D02*
D03*
X1118362Y1093978D02*
D03*
X1692546Y1025254D02*
D03*
X2014220Y1183386D02*
D03*
X889254Y1341882D02*
D03*
X1021080Y1241298D02*
D03*
X370586Y1232154D02*
D03*
X1198880Y1254252D02*
D03*
X1105154Y1381506D02*
D03*
X1073150Y1329010D02*
D03*
X1005586Y1318768D02*
D03*
X815086Y1129284D02*
D03*
X2057908Y1131316D02*
D03*
X862076Y1641602D02*
D03*
X870966Y1859280D02*
D03*
X772524Y1525668D02*
D03*
X1065410Y1309878D02*
D03*
X1155954Y1384554D02*
D03*
X951230Y1378966D02*
D03*
X825500D02*
D03*
X1234694Y1297940D02*
D03*
X1485500D02*
D03*
X1103884Y1255776D02*
D03*
X1109472Y1119124D02*
D03*
X769620Y1106424D02*
D03*
X717042Y1502410D02*
D03*
X724662Y1490980D02*
D03*
X410718Y1389380D02*
D03*
X812292Y1270762D02*
D03*
X1842370Y1614170D02*
D03*
X812800Y1353566D02*
D03*
M02*
